<?xml version="1.0" encoding="utf-8"?>
<!-- Generator: Adobe Illustrator 24.2.0, SVG Export Plug-In . SVG Version: 6.00 Build 0)  -->
<svg version="1.1" id="Layer_1" xmlns="http://www.w3.org/2000/svg" xmlns:xlink="http://www.w3.org/1999/xlink" x="0px" y="0px"
	 viewBox="0 0 17 18" style="enable-background:new 0 0 17 18;" xml:space="preserve">
<style type="text/css">
	.st0{display:none;}
	.st1{display:inline;fill-rule:evenodd;clip-rule:evenodd;fill:#B9BBBE;}
	.st2{display:inline;fill:#B9BBBE;}
	.st3{display:inline;fill-rule:evenodd;clip-rule:evenodd;fill:#7289DA;}
	.st4{display:inline;fill:#7289DA;}
	.st5{display:inline;fill:#FC615D;}
	.st6{display:inline;fill-rule:evenodd;clip-rule:evenodd;fill:#FC615D;}
	.st7{fill:#A7A2B5;}
</style>
<g id="Layer_1_1_" class="st0">
	<path class="st1" d="M14.9,7.8h1.9v3.3h-1.9c-0.2,0.8-0.5,1.5-1,2.1l1.2,1.2l-1.7,1.7l-1.2-1.2c-0.6,0.4-1.4,0.8-2.1,1v1.9H6.8
		v-1.9c-0.8-0.2-1.5-0.5-2.1-1l-1.2,1.2l-1.7-1.7L3,13.2c-0.4-0.6-0.8-1.4-1-2.1H0.1V7.8H2C2.2,7,2.5,6.3,3,5.7L1.8,4.4l1.7-1.7
		l1.2,1.2c0.6-0.4,1.4-0.8,2.1-1V1.1h3.3V3c0.8,0.2,1.5,0.5,2.1,1l1.2-1.2l1.7,1.7l-1.2,1.1C14.4,6.3,14.8,7,14.9,7.8z M8.4,12.8
		c1.8,0,3.3-1.5,3.3-3.3s-1.5-3.3-3.3-3.3S5.1,7.7,5.1,9.5S6.6,12.8,8.4,12.8z"/>
</g>
<g id="Layer_2_1_" class="st0">
	<path class="st2" d="M8.4,1.1c-4.6,0-8.3,3.7-8.3,8.3v6.7c0,0.9,0.7,1.7,1.7,1.7h1.7c0.9,0,1.7-0.7,1.7-1.7v-2.5
		c0-0.9-0.7-1.7-1.7-1.7H1.8V9.4c0-3.7,3-6.7,6.7-6.7s6.7,3,6.7,6.7v2.5h-1.7c-0.9,0-1.7,0.7-1.7,1.7v2.5c0,0.9,0.7,1.7,1.7,1.7h1.7
		c0.9,0,1.7-0.7,1.7-1.7V9.4C16.8,4.8,13.1,1.1,8.4,1.1z"/>
</g>
<g id="Layer_3" class="st0">
	<path class="st1" d="M10.9,8.6c0,1.4-1.1,2.5-2.5,2.5c-1.3,0-2.5-1.1-2.5-2.5v-5c0-1.4,1.1-2.5,2.5-2.5s2.5,1.1,2.5,2.5V8.6z
		 M8.4,12.9c2.3,0,4.4-1.8,4.4-4.3h1.4c0,2.9-2.3,5.2-5,5.6v2.7H7.6v-2.7c-2.7-0.4-5-2.8-5-5.6H4C4,11.1,6.1,12.9,8.4,12.9z
		 M8.4,2.8c-0.7,0-0.8,0.6-0.8,0.8v5c0,0.3,0.2,0.8,0.8,0.8c0.7,0,0.8-0.6,0.8-0.8v-5C9.3,3.3,9.1,2.8,8.4,2.8z"/>
	<path class="st1" d="M10.9,8.6c0,1.4-1.1,2.5-2.5,2.5c-1.3,0-2.5-1.1-2.5-2.5v-5c0-1.4,1.1-2.5,2.5-2.5s2.5,1.1,2.5,2.5V8.6z
		 M8.4,12.9c2.3,0,4.4-1.8,4.4-4.3h1.4c0,2.9-2.3,5.2-5,5.6v3.6H7.6v-3.6c-2.7-0.4-5-2.8-5-5.6H4C4,11.1,6.1,12.9,8.4,12.9z"/>
</g>
<g id="Layer_4" class="st0">
	<path class="st2" d="M15.2,6.1l-2,2V5.7c0-1.1-0.9-2-1.9-2H2c-1.1,0-1.9,0.9-1.9,2v7c0,1.1,0.9,2,1.9,2h9.1c1.1,0,1.9-0.9,1.9-2
		v-2.3l2,2c0.6,0.6,1.6,0.1,1.6-0.7V6.8C16.8,5.9,15.8,5.5,15.2,6.1z"/>
</g>
<g id="Layer_1_copy" class="st0">
	<path class="st3" d="M14.9,7.8h1.9v3.3h-1.9c-0.2,0.8-0.5,1.5-1,2.1l1.2,1.2l-1.7,1.7l-1.2-1.2c-0.6,0.4-1.4,0.8-2.1,1v1.9H6.8
		v-1.9c-0.8-0.2-1.5-0.5-2.1-1l-1.2,1.2l-1.7-1.7L3,13.2c-0.4-0.6-0.8-1.4-1-2.1H0.1V7.8H2C2.2,7,2.5,6.3,3,5.7L1.8,4.4l1.7-1.7
		l1.2,1.2c0.6-0.4,1.4-0.8,2.1-1V1.1h3.3V3c0.8,0.2,1.5,0.5,2.1,1l1.2-1.2l1.7,1.7l-1.2,1.1C14.4,6.3,14.8,7,14.9,7.8z M8.4,12.8
		c1.8,0,3.3-1.5,3.3-3.3s-1.5-3.3-3.3-3.3S5.1,7.7,5.1,9.5S6.6,12.8,8.4,12.8z"/>
</g>
<g id="Layer_2_copy" class="st0">
	<path class="st4" d="M8.4,1.1c-4.6,0-8.3,3.7-8.3,8.3v6.7c0,0.9,0.7,1.7,1.7,1.7h1.7c0.9,0,1.7-0.7,1.7-1.7v-2.5
		c0-0.9-0.7-1.7-1.7-1.7H1.8V9.4c0-3.7,3-6.7,6.7-6.7s6.7,3,6.7,6.7v2.5h-1.7c-0.9,0-1.7,0.7-1.7,1.7v2.5c0,0.9,0.7,1.7,1.7,1.7h1.7
		c0.9,0,1.7-0.7,1.7-1.7V9.4C16.8,4.8,13.1,1.1,8.4,1.1z"/>
</g>
<g id="Layer_3_copy" class="st0">
	<path class="st3" d="M10.9,8.6c0,1.4-1.1,2.5-2.5,2.5c-1.3,0-2.5-1.1-2.5-2.5v-5c0-1.4,1.1-2.5,2.5-2.5s2.5,1.1,2.5,2.5V8.6z
		 M8.4,12.9c2.3,0,4.4-1.8,4.4-4.3h1.4c0,2.9-2.3,5.2-5,5.6v2.7H7.6v-2.7c-2.7-0.4-5-2.8-5-5.6H4C4,11.1,6.1,12.9,8.4,12.9z
		 M8.4,2.8c-0.7,0-0.8,0.6-0.8,0.8v5c0,0.3,0.2,0.8,0.8,0.8c0.7,0,0.8-0.6,0.8-0.8v-5C9.3,3.3,9.1,2.8,8.4,2.8z"/>
	<path class="st3" d="M10.9,8.6c0,1.4-1.1,2.5-2.5,2.5c-1.3,0-2.5-1.1-2.5-2.5v-5c0-1.4,1.1-2.5,2.5-2.5s2.5,1.1,2.5,2.5V8.6z
		 M8.4,12.9c2.3,0,4.4-1.8,4.4-4.3h1.4c0,2.9-2.3,5.2-5,5.6v3.6H7.6v-3.6c-2.7-0.4-5-2.8-5-5.6H4C4,11.1,6.1,12.9,8.4,12.9z"/>
</g>
<g id="Layer_4_copy" class="st0">
	<path class="st4" d="M15.2,6.1l-2,2V5.7c0-1.1-0.9-2-1.9-2H2c-1.1,0-1.9,0.9-1.9,2v7c0,1.1,0.9,2,1.9,2h9.1c1.1,0,1.9-0.9,1.9-2
		v-2.3l2,2c0.6,0.6,1.6,0.1,1.6-0.7V6.8C16.8,5.9,15.8,5.5,15.2,6.1z"/>
</g>
<g id="Layer_1_copy_2" class="st0">
	<path class="st3" d="M14.9,7.8h1.9v3.3h-1.9c-0.2,0.8-0.5,1.5-1,2.1l1.2,1.2l-1.7,1.7l-1.2-1.2c-0.6,0.4-1.4,0.8-2.1,1v1.9H6.8
		v-1.9c-0.8-0.2-1.5-0.5-2.1-1l-1.2,1.2l-1.7-1.7L3,13.2c-0.4-0.6-0.8-1.4-1-2.1H0.1V7.8H2C2.2,7,2.5,6.3,3,5.7L1.8,4.4l1.7-1.7
		l1.2,1.2c0.6-0.4,1.4-0.8,2.1-1V1.1h3.3V3c0.8,0.2,1.5,0.5,2.1,1l1.2-1.2l1.7,1.7l-1.2,1.1C14.4,6.3,14.8,7,14.9,7.8z M8.4,12.8
		c1.8,0,3.3-1.5,3.3-3.3s-1.5-3.3-3.3-3.3S5.1,7.7,5.1,9.5S6.6,12.8,8.4,12.8z"/>
</g>
<g id="Layer_2_copy_2" class="st0">
	<path class="st5" d="M8.4,1.1c-4.6,0-8.3,3.7-8.3,8.3v6.7c0,0.9,0.7,1.7,1.7,1.7h1.7c0.9,0,1.7-0.7,1.7-1.7v-2.5
		c0-0.9-0.7-1.7-1.7-1.7H1.8V9.4c0-3.7,3-6.7,6.7-6.7s6.7,3,6.7,6.7v2.5h-1.7c-0.9,0-1.7,0.7-1.7,1.7v2.5c0,0.9,0.7,1.7,1.7,1.7h1.7
		c0.9,0,1.7-0.7,1.7-1.7V9.4C16.8,4.8,13.1,1.1,8.4,1.1z"/>
	<polygon class="st5" points="10.8,10.6 9.3,9.1 10.8,7.6 9.6,6.4 8.1,7.9 6.6,6.4 5.4,7.6 6.9,9.1 5.4,10.6 6.6,11.8 8.1,10.3 
		9.6,11.8 	"/>
</g>
<g id="Layer_3_copy_2" class="st0">
	<path class="st1" d="M10.9,8.6c0,1.4-1.1,2.5-2.5,2.5c-1.3,0-2.5-1.1-2.5-2.5v-5c0-1.4,1.1-2.5,2.5-2.5s2.5,1.1,2.5,2.5V8.6z
		 M8.4,12.9c2.3,0,4.4-1.8,4.4-4.3h1.4c0,2.9-2.3,5.2-5,5.6v2.7H7.6v-2.7c-2.7-0.4-5-2.8-5-5.6H4C4,11.1,6.1,12.9,8.4,12.9z
		 M8.4,2.8c-0.7,0-0.8,0.6-0.8,0.8v5c0,0.3,0.2,0.8,0.8,0.8c0.7,0,0.8-0.6,0.8-0.8v-5C9.3,3.3,9.1,2.8,8.4,2.8z"/>
	<path class="st6" d="M10.9,8.6c0,1.4-1.1,2.5-2.5,2.5c-1.3,0-2.5-1.1-2.5-2.5v-5c0-1.4,1.1-2.5,2.5-2.5s2.5,1.1,2.5,2.5V8.6z
		 M8.4,12.9c2.3,0,4.4-1.8,4.4-4.3h1.4c0,2.9-2.3,5.2-5,5.6v3.6H7.6v-3.6c-2.7-0.4-5-2.8-5-5.6H4C4,11.1,6.1,12.9,8.4,12.9z"/>
	<polygon class="st5" points="5.1,5.4 3.7,4 5.1,2.6 4,1.6 2.6,2.9 1.2,1.6 0.2,2.6 1.5,4 0.2,5.4 1.2,6.5 2.6,5.1 4,6.5 	"/>
</g>
<g id="Layer_4_copy_2" class="st0">
	<path class="st5" d="M15.2,6.1l-2.1,2V5.7c0-1.1-0.9-2-1.9-2H2c-1.1,0-1.9,0.9-1.9,2v7c0,1.1,0.9,2,1.9,2h9.2c1.1,0,1.9-0.9,1.9-2
		v-2.3l2.1,2c0.6,0.6,1.6,0.1,1.6-0.7V6.8C16.8,5.9,15.8,5.5,15.2,6.1z M8.1,11.9l-1.5-1.5l-1.4,1.5L4,10.7l1.4-1.5L4,7.7l1.2-1.2
		L6.7,8l1.4-1.5l1.2,1.2L7.8,9.2l1.4,1.5L8.1,11.9z"/>
</g>
<g id="Layer_3_copy_3" class="st0">
	<path class="st3" d="M10.9,8.6c0,1.4-1.1,2.5-2.5,2.5c-1.3,0-2.5-1.1-2.5-2.5v-5c0-1.4,1.1-2.5,2.5-2.5s2.5,1.1,2.5,2.5V8.6z
		 M8.4,12.9c2.3,0,4.4-1.8,4.4-4.3h1.4c0,2.9-2.3,5.2-5,5.6v2.7H7.6v-2.7c-2.7-0.4-5-2.8-5-5.6H4C4,11.1,6.1,12.9,8.4,12.9z
		 M8.4,2.8c-0.7,0-0.8,0.6-0.8,0.8v5c0,0.3,0.2,0.8,0.8,0.8c0.7,0,0.8-0.6,0.8-0.8v-5C9.3,3.3,9.1,2.8,8.4,2.8z"/>
	<path class="st3" d="M10.9,8.6c0,1.4-1.1,2.5-2.5,2.5c-1.3,0-2.5-1.1-2.5-2.5v-5c0-1.4,1.1-2.5,2.5-2.5s2.5,1.1,2.5,2.5V8.6z
		 M8.4,12.9c2.3,0,4.4-1.8,4.4-4.3h1.4c0,2.9-2.3,5.2-5,5.6v3.6H7.6v-3.6c-2.7-0.4-5-2.8-5-5.6H4C4,11.1,6.1,12.9,8.4,12.9z"/>
	<polygon class="st4" points="5.1,5.4 3.7,4 5.1,2.6 4,1.6 2.6,2.9 1.2,1.6 0.2,2.6 1.5,4 0.2,5.4 1.2,6.5 2.6,5.1 4,6.5 	"/>
</g>
<g id="Layer_4_copy_3" class="st0">
	<path class="st4" d="M15.2,6.1l-2.1,2V5.7c0-1.1-0.9-2-1.9-2H2c-1.1,0-1.9,0.9-1.9,2v7c0,1.1,0.9,2,1.9,2h9.2c1.1,0,1.9-0.9,1.9-2
		v-2.3l2.1,2c0.6,0.6,1.6,0.1,1.6-0.7V6.8C16.8,5.9,15.8,5.5,15.2,6.1z M8.1,11.9l-1.5-1.5l-1.4,1.5L4,10.7l1.4-1.5L4,7.7l1.2-1.2
		L6.7,8l1.4-1.5l1.2,1.2L7.8,9.2l1.4,1.5L8.1,11.9z"/>
</g>
<g>
	<path class="st7" d="M6.1,8C5.9,8.1,5.8,8.2,5.7,8.3C4.6,9,3.5,9.7,2.4,10.5c-0.7,0.5-0.8,1.3-0.3,1.8c0.1,0.1,0.2,0.2,0.3,0.3
		c1.5,1,3,2,4.5,3c1.1,0.7,2.2,0.7,3.3,0c1.5-1,3-2,4.5-3c0.9-0.5,0.8-1.7,0-2.2c-1.2-0.7-2.3-1.5-3.5-2.3C11,8.1,11,8,10.9,8
		c0.4-0.3,0.9-0.7,1.3-1c0.4,0.3,0.9,0.6,1.4,0.9c0.7,0.5,1.4,0.9,2.1,1.4c1.5,1.1,1.5,3.4,0,4.5c-1.6,1.1-3.3,2.3-5,3.3
		c-1.4,0.9-3,0.9-4.5,0c-1.7-1.1-3.4-2.2-5.1-3.4c-1.3-0.9-1.5-3-0.3-4.1c0.2-0.2,0.4-0.3,0.6-0.5c1-0.7,2.1-1.4,3.1-2.1
		c0.2-0.1,0.2-0.1,0.4,0C5.3,7.4,5.7,7.7,6.1,8z"/>
	<path class="st7" d="M7.7,9c0-0.8,0-1.7,0-2.5c0-0.2,0-0.2-0.2-0.3c-1.3-0.5-2.1-1.7-1.9-3c0.1-1.4,1.1-2.5,2.5-2.7
		c1.8-0.3,3.4,1.1,3.4,2.9c0,1.3-0.7,2.3-1.9,2.8C9.3,6.2,9.3,6.3,9.3,6.5c0,1.7,0,3.3,0,5c0,0.3,0,0.3-0.3,0.3c-0.3,0-0.7,0-1,0
		c-0.2,0-0.3,0-0.3-0.3C7.7,10.7,7.7,9.8,7.7,9z M8.5,2.1c-0.7,0-1.3,0.6-1.3,1.3c0,0.8,0.6,1.4,1.3,1.4c0.8,0,1.4-0.6,1.4-1.4
		C9.8,2.7,9.2,2.1,8.5,2.1z"/>
	<path class="st7" d="M4.7,12.3c-0.4,0-0.8-0.4-0.8-0.8c0-0.4,0.4-0.8,0.8-0.8c0.4,0,0.8,0.4,0.8,0.8C5.5,11.9,5.2,12.3,4.7,12.3z"
		/>
</g>
</svg>
