<?xml version="1.0" encoding="utf-8"?>
<!-- Generator: Adobe Illustrator 24.2.0, SVG Export Plug-In . SVG Version: 6.00 Build 0)  -->
<svg version="1.1" xmlns="http://www.w3.org/2000/svg" xmlns:xlink="http://www.w3.org/1999/xlink" x="0px" y="0px"
	 viewBox="0 0 17.1 17.1" style="enable-background:new 0 0 17.1 17.1;" xml:space="preserve">
<style type="text/css">
	.st0{display:none;}
	.st1{display:inline;fill-rule:evenodd;clip-rule:evenodd;fill:#B9BBBE;}
	.st2{display:inline;fill:#B9BBBE;}
	.st3{display:inline;fill-rule:evenodd;clip-rule:evenodd;fill:#7289DA;}
	.st4{fill:#7289DA;}
	.st5{display:inline;fill:#7289DA;}
</style>
<g id="Layer_1" class="st0">
	<path class="st1" d="M15,6.9h1.9v3.3H15c-0.2,0.8-0.5,1.5-1,2.1l1.2,1.2l-1.7,1.7L12.3,14c-0.6,0.4-1.4,0.8-2.1,1v1.9H6.9V15
		c-0.8-0.2-1.5-0.5-2.1-1l-1.2,1.2l-1.7-1.7l1.2-1.2c-0.4-0.6-0.8-1.4-1-2.1H0.2V6.9h1.9c0.2-0.8,0.5-1.5,1-2.1L1.9,3.5l1.7-1.7
		l1.2,1.2c0.6-0.4,1.4-0.8,2.1-1V0.2h3.3v1.9c0.8,0.2,1.5,0.5,2.1,1l1.2-1.2l1.7,1.7L14,4.7C14.5,5.4,14.8,6.1,15,6.9z M8.5,11.9
		c1.8,0,3.3-1.5,3.3-3.3c0-1.8-1.5-3.3-3.3-3.3c-1.8,0-3.3,1.5-3.3,3.3C5.2,10.4,6.7,11.9,8.5,11.9z"/>
</g>
<g id="Layer_2" class="st0">
	<path class="st2" d="M8.5,0.2c-4.6,0-8.3,3.7-8.3,8.3v6.7c0,0.9,0.7,1.7,1.7,1.7h1.7c0.9,0,1.7-0.7,1.7-1.7v-2.5
		c0-0.9-0.7-1.7-1.7-1.7H1.9V8.5c0-3.7,3-6.7,6.7-6.7c3.7,0,6.7,3,6.7,6.7V11h-1.7c-0.9,0-1.7,0.7-1.7,1.7v2.5
		c0,0.9,0.7,1.7,1.7,1.7h1.7c0.9,0,1.7-0.7,1.7-1.7V8.5C16.9,3.9,13.1,0.2,8.5,0.2z"/>
</g>
<g id="Layer_3" class="st0">
	<path class="st1" d="M11,7.7c0,1.4-1.1,2.5-2.5,2.5C7.2,10.2,6,9.1,6,7.7v-5c0-1.4,1.1-2.5,2.5-2.5c1.4,0,2.5,1.1,2.5,2.5L11,7.7z
		 M8.5,12c2.3,0,4.4-1.8,4.4-4.3h1.4c0,2.9-2.3,5.2-5,5.6V16H7.7v-2.7c-2.7-0.4-5-2.8-5-5.6h1.4C4.1,10.2,6.2,12,8.5,12z M8.5,1.9
		c-0.7,0-0.8,0.6-0.8,0.8v5c0,0.3,0.2,0.8,0.8,0.8c0.7,0,0.8-0.6,0.8-0.8v-5C9.4,2.4,9.2,1.9,8.5,1.9z"/>
	<path class="st1" d="M11,7.7c0,1.4-1.1,2.5-2.5,2.5C7.2,10.2,6,9.1,6,7.7v-5c0-1.4,1.1-2.5,2.5-2.5c1.4,0,2.5,1.1,2.5,2.5L11,7.7z
		 M8.5,12c2.3,0,4.4-1.8,4.4-4.3h1.4c0,2.9-2.3,5.2-5,5.6v3.6H7.7v-3.6c-2.7-0.4-5-2.8-5-5.6h1.4C4.1,10.2,6.2,12,8.5,12z"/>
</g>
<g id="Layer_4" class="st0">
	<path class="st2" d="M15.3,5.2l-2,2V4.8c0-1.1-0.9-2-1.9-2H2.1c-1.1,0-1.9,0.9-1.9,2v7c0,1.1,0.9,2,1.9,2h9.1c1.1,0,1.9-0.9,1.9-2
		V9.5l2,2c0.6,0.6,1.6,0.1,1.6-0.7V5.9C16.9,5,15.9,4.6,15.3,5.2z"/>
</g>
<g id="Layer_1_copy" class="st0">
	<path class="st3" d="M15,6.9h1.9v3.3H15c-0.2,0.8-0.5,1.5-1,2.1l1.2,1.2l-1.7,1.7L12.3,14c-0.6,0.4-1.4,0.8-2.1,1v1.9H6.9V15
		c-0.8-0.2-1.5-0.5-2.1-1l-1.2,1.2l-1.7-1.7l1.2-1.2c-0.4-0.6-0.8-1.4-1-2.1H0.2V6.9h1.9c0.2-0.8,0.5-1.5,1-2.1L1.9,3.5l1.7-1.7
		l1.2,1.2c0.6-0.4,1.4-0.8,2.1-1V0.2h3.3v1.9c0.8,0.2,1.5,0.5,2.1,1l1.2-1.2l1.7,1.7L14,4.7C14.5,5.4,14.8,6.1,15,6.9z M8.5,11.9
		c1.8,0,3.3-1.5,3.3-3.3c0-1.8-1.5-3.3-3.3-3.3c-1.8,0-3.3,1.5-3.3,3.3C5.2,10.4,6.7,11.9,8.5,11.9z"/>
</g>
<g id="Layer_2_copy">
	<path class="st4" d="M8.5,0.2c-4.6,0-8.3,3.7-8.3,8.3v6.7c0,0.9,0.7,1.7,1.7,1.7h1.7c0.9,0,1.7-0.7,1.7-1.7v-2.5
		c0-0.9-0.7-1.7-1.7-1.7H1.9V8.5c0-3.7,3-6.7,6.7-6.7c3.7,0,6.7,3,6.7,6.7V11h-1.7c-0.9,0-1.7,0.7-1.7,1.7v2.5
		c0,0.9,0.7,1.7,1.7,1.7h1.7c0.9,0,1.7-0.7,1.7-1.7V8.5C16.9,3.9,13.1,0.2,8.5,0.2z"/>
</g>
<g id="Layer_3_copy" class="st0">
	<path class="st3" d="M11,7.7c0,1.4-1.1,2.5-2.5,2.5C7.2,10.2,6,9.1,6,7.7v-5c0-1.4,1.1-2.5,2.5-2.5c1.4,0,2.5,1.1,2.5,2.5L11,7.7z
		 M8.5,12c2.3,0,4.4-1.8,4.4-4.3h1.4c0,2.9-2.3,5.2-5,5.6V16H7.7v-2.7c-2.7-0.4-5-2.8-5-5.6h1.4C4.1,10.2,6.2,12,8.5,12z M8.5,1.9
		c-0.7,0-0.8,0.6-0.8,0.8v5c0,0.3,0.2,0.8,0.8,0.8c0.7,0,0.8-0.6,0.8-0.8v-5C9.4,2.4,9.2,1.9,8.5,1.9z"/>
	<path class="st3" d="M11,7.7c0,1.4-1.1,2.5-2.5,2.5C7.2,10.2,6,9.1,6,7.7v-5c0-1.4,1.1-2.5,2.5-2.5c1.4,0,2.5,1.1,2.5,2.5L11,7.7z
		 M8.5,12c2.3,0,4.4-1.8,4.4-4.3h1.4c0,2.9-2.3,5.2-5,5.6v3.6H7.7v-3.6c-2.7-0.4-5-2.8-5-5.6h1.4C4.1,10.2,6.2,12,8.5,12z"/>
</g>
<g id="Layer_4_copy" class="st0">
	<path class="st5" d="M15.3,5.2l-2,2V4.8c0-1.1-0.9-2-1.9-2H2.1c-1.1,0-1.9,0.9-1.9,2v7c0,1.1,0.9,2,1.9,2h9.1c1.1,0,1.9-0.9,1.9-2
		V9.5l2,2c0.6,0.6,1.6,0.1,1.6-0.7V5.9C16.9,5,15.9,4.6,15.3,5.2z"/>
</g>
</svg>
