<?xml version="1.0" encoding="utf-8"?>
<!-- Generator: Adobe Illustrator 25.2.3, SVG Export Plug-In . SVG Version: 6.00 Build 0)  -->
<svg version="1.1" id="Layer_1" xmlns="http://www.w3.org/2000/svg" xmlns:xlink="http://www.w3.org/1999/xlink" x="0px" y="0px"
	 viewBox="0 0 32 32" style="enable-background:new 0 0 32 32;" xml:space="preserve">
<style type="text/css">
	.st0{fill-rule:evenodd;clip-rule:evenodd;fill:#747F8D;}
	.st1{display:none;}
	.st2{display:inline;fill:#B9BBBE;}
	.st3{display:inline;fill-rule:evenodd;clip-rule:evenodd;fill:#B9BBBE;}
</style>
<g id="Layer_1_1_">
	<path class="st0" d="M27.8,13h3.5v6h-3.5c-0.4,1.5-0.9,2.7-1.8,3.8l2.2,2.2l-3.1,3.1L22.9,26c-1.1,0.7-2.6,1.5-3.8,1.8v3.5h-6v-3.5
		c-1.5-0.4-2.7-0.9-3.8-1.8l-2.2,2.2l-3.1-3.1L6,22.9c-0.7-1.1-1.5-2.6-1.8-3.8H0.7v-6h3.5c0.4-1.5,0.9-2.7,1.8-3.8L3.8,6.8l3.1-3.1
		l2.2,2.2C10.2,5.1,11.7,4.4,13,4V0.7h6v3.5c1.5,0.4,2.7,0.9,3.8,1.8l2.2-2.2l3.1,3.1L26,9C26.9,10.2,27.4,11.5,27.8,13z M15.9,22.1
		c3.3,0,6-2.7,6-6s-2.7-6-6-6s-6,2.7-6,6S12.6,22.1,15.9,22.1z"/>
</g>
<g id="Layer_2_1_" class="st1">
	<path class="st2" d="M15.9,7.6c-4.6,0-8.3,3.7-8.3,8.3v6.7c0,0.9,0.7,1.7,1.7,1.7H11c0.9,0,1.7-0.7,1.7-1.7v-2.5
		c0-0.9-0.7-1.7-1.7-1.7H9.3v-2.5c0-3.7,3-6.7,6.7-6.7s6.7,3,6.7,6.7v2.5H21c-0.9,0-1.7,0.7-1.7,1.7v2.5c0,0.9,0.7,1.7,1.7,1.7h1.7
		c0.9,0,1.7-0.7,1.7-1.7v-6.7C24.3,11.4,20.5,7.6,15.9,7.6z"/>
</g>
<g id="Layer_3" class="st1">
	<path class="st3" d="M18.5,15.1c0,1.4-1.1,2.5-2.5,2.5c-1.3,0-2.5-1.1-2.5-2.5v-5c0-1.4,1.1-2.5,2.5-2.5c1.4,0,2.5,1.1,2.5,2.5
		V15.1z M15.9,19.5c2.3,0,4.4-1.8,4.4-4.3h1.4c0,2.9-2.3,5.2-5,5.6v2.7h-1.6v-2.7c-2.7-0.4-5-2.8-5-5.6h1.4
		C11.5,17.6,13.6,19.5,15.9,19.5z M15.9,9.3c-0.7,0-0.8,0.6-0.8,0.8v5c0,0.3,0.2,0.8,0.8,0.8c0.7,0,0.8-0.6,0.8-0.8v-5
		C16.8,9.9,16.6,9.3,15.9,9.3z"/>
	<path class="st3" d="M18.5,15.1c0,1.4-1.1,2.5-2.5,2.5c-1.3,0-2.5-1.1-2.5-2.5v-5c0-1.4,1.1-2.5,2.5-2.5c1.4,0,2.5,1.1,2.5,2.5
		V15.1z M15.9,19.5c2.3,0,4.4-1.8,4.4-4.3h1.4c0,2.9-2.3,5.2-5,5.6v3.6h-1.6v-3.6c-2.7-0.4-5-2.8-5-5.6h1.4
		C11.5,17.6,13.6,19.5,15.9,19.5z"/>
</g>
<g id="Layer_4" class="st1">
	<path class="st2" d="M22.8,12.6l-2,2v-2.4c0-1.1-0.9-2-1.9-2H9.5c-1.1,0-1.9,0.9-1.9,2v7c0,1.1,0.9,2,1.9,2h9.1
		c1.1,0,1.9-0.9,1.9-2V17l2,2c0.6,0.6,1.6,0.1,1.6-0.7v-4.9C24.3,12.4,23.3,12,22.8,12.6z"/>
</g>
</svg>
