<?xml version="1.0" encoding="utf-8"?>
<!-- Generator: Adobe Illustrator 25.2.3, SVG Export Plug-In . SVG Version: 6.00 Build 0)  -->
<svg version="1.1" id="Layer_1" xmlns="http://www.w3.org/2000/svg" xmlns:xlink="http://www.w3.org/1999/xlink" x="0px" y="0px"
	 viewBox="0 0 32 32" style="enable-background:new 0 0 32 32;" xml:space="preserve">
<style type="text/css">
	.st0{display:none;}
	.st1{display:inline;fill-rule:evenodd;clip-rule:evenodd;fill:#B9BBBE;}
	.st2{fill:#042042;}
	.st3{display:inline;fill:#B9BBBE;}
</style>
<g id="Layer_1_1_" class="st0">
	<path class="st1" d="M22.5,14.4h1.9v3.3h-1.9c-0.2,0.8-0.5,1.5-1,2.1l1.2,1.2L21,22.6l-1.2-1.2c-0.6,0.4-1.4,0.8-2.1,1v1.9h-3.3
		v-1.9c-0.8-0.2-1.5-0.5-2.1-1l-1.2,1.2L9.4,21l1.2-1.2c-0.4-0.6-0.8-1.4-1-2.1H7.6v-3.3h1.9c0.2-0.8,0.5-1.5,1-2.1l-1.2-1.3L11,9.2
		l1.2,1.2c0.6-0.4,1.4-0.8,2.1-1V7.6h3.3v1.9c0.8,0.2,1.5,0.5,2.1,1l1.2-1.2l1.7,1.7l-1.2,1.1C22,12.9,22.2,13.5,22.5,14.4z
		 M15.9,19.3c1.8,0,3.3-1.5,3.3-3.3s-1.5-3.3-3.3-3.3s-3.3,1.5-3.3,3.3S14.1,19.3,15.9,19.3z"/>
</g>
<g id="Layer_2_1_">
	<path class="st2" d="M15.9,0.8C7.5,0.8,0.8,7.5,0.8,15.9v12.2c0,1.6,1.3,3.1,3.1,3.1H7c1.6,0,3.1-1.3,3.1-3.1v-4.5
		c0-1.6-1.3-3.1-3.1-3.1H3.9v-4.5C3.9,9.2,9.3,3.7,16,3.7s12.2,5.5,12.2,12.2v4.5h-3.1c-1.6,0-3.1,1.3-3.1,3.1v4.5
		c0,1.6,1.3,3.1,3.1,3.1h3.1c1.6,0,3.1-1.3,3.1-3.1V15.9C31.1,7.5,24.2,0.8,15.9,0.8z"/>
</g>
<g id="Layer_3" class="st0">
	<path class="st1" d="M18.5,15.1c0,1.4-1.1,2.5-2.5,2.5c-1.3,0-2.5-1.1-2.5-2.5v-5c0-1.4,1.1-2.5,2.5-2.5c1.4,0,2.5,1.1,2.5,2.5
		V15.1z M15.9,19.5c2.3,0,4.4-1.8,4.4-4.3h1.4c0,2.9-2.3,5.2-5,5.6v2.7h-1.6v-2.7c-2.7-0.4-5-2.8-5-5.6h1.4
		C11.5,17.6,13.6,19.5,15.9,19.5z M15.9,9.3c-0.7,0-0.8,0.6-0.8,0.8v5c0,0.3,0.2,0.8,0.8,0.8c0.7,0,0.8-0.6,0.8-0.8v-5
		C16.8,9.9,16.6,9.3,15.9,9.3z"/>
	<path class="st1" d="M18.5,15.1c0,1.4-1.1,2.5-2.5,2.5c-1.3,0-2.5-1.1-2.5-2.5v-5c0-1.4,1.1-2.5,2.5-2.5c1.4,0,2.5,1.1,2.5,2.5
		V15.1z M15.9,19.5c2.3,0,4.4-1.8,4.4-4.3h1.4c0,2.9-2.3,5.2-5,5.6v3.6h-1.6v-3.6c-2.7-0.4-5-2.8-5-5.6h1.4
		C11.5,17.6,13.6,19.5,15.9,19.5z"/>
</g>
<g id="Layer_4" class="st0">
	<path class="st3" d="M22.8,12.6l-2,2v-2.4c0-1.1-0.9-2-1.9-2H9.5c-1.1,0-1.9,0.9-1.9,2v7c0,1.1,0.9,2,1.9,2h9.1
		c1.1,0,1.9-0.9,1.9-2V17l2,2c0.6,0.6,1.6,0.1,1.6-0.7v-4.9C24.3,12.4,23.3,12,22.8,12.6z"/>
</g>
</svg>
