<?xml version="1.0" encoding="UTF-8"?>
<!-- Generator: Adobe Illustrator 25.2.3, SVG Export Plug-In . SVG Version: 6.00 Build 0)  -->
<svg width="25.9" height="31" version="1.1" viewBox="0 0 25.9 31" xml:space="preserve" xmlns="http://www.w3.org/2000/svg" xmlns:cc="http://creativecommons.org/ns#" xmlns:dc="http://purl.org/dc/elements/1.1/" xmlns:rdf="http://www.w3.org/1999/02/22-rdf-syntax-ns#"><metadata><rdf:RDF><cc:Work rdf:about=""><dc:format>image/svg+xml</dc:format><dc:type rdf:resource="http://purl.org/dc/dcmitype/StillImage"/><dc:title/></cc:Work></rdf:RDF></metadata>
<style type="text/css">
	.st0{display:none;}
	.st1{display:inline;fill-rule:evenodd;clip-rule:evenodd;fill:#B9BBBE;}
	.st2{display:inline;fill:#B9BBBE;}
	.st3{fill-rule:evenodd;clip-rule:evenodd;fill:#FC615D;}
	.st4{fill:#FC615D;}
</style>
<g id="Layer_1_1_" class="st0" transform="translate(-.8 -.5)" display="none">
	<path class="st1" d="m22.5 14.4h1.9v3.3h-1.9c-0.2 0.8-0.5 1.5-1 2.1l1.2 1.2-1.7 1.6-1.2-1.2c-0.6 0.4-1.4 0.8-2.1 1v1.9h-3.3v-1.9c-0.8-0.2-1.5-0.5-2.1-1l-1.2 1.2-1.7-1.6 1.2-1.2c-0.4-0.6-0.8-1.4-1-2.1h-2v-3.3h1.9c0.2-0.8 0.5-1.5 1-2.1l-1.2-1.3 1.7-1.8 1.2 1.2c0.6-0.4 1.4-0.8 2.1-1v-1.8h3.3v1.9c0.8 0.2 1.5 0.5 2.1 1l1.2-1.2 1.7 1.7-1.2 1.1c0.6 0.8 0.8 1.4 1.1 2.3zm-6.6 4.9c1.8 0 3.3-1.5 3.3-3.3s-1.5-3.3-3.3-3.3-3.3 1.5-3.3 3.3 1.5 3.3 3.3 3.3z" clip-rule="evenodd" display="inline" fill="#b9bbbe" fill-rule="evenodd"/>
</g>
<g id="Layer_2_1_" class="st0" transform="translate(-.8 -.5)" display="none">
	<path class="st2" d="m15.9 7.6c-4.6 0-8.3 3.7-8.3 8.3v6.7c0 0.9 0.7 1.7 1.7 1.7h1.7c0.9 0 1.7-0.7 1.7-1.7v-2.5c0-0.9-0.7-1.7-1.7-1.7h-1.7v-2.5c0-3.7 3-6.7 6.7-6.7s6.7 3 6.7 6.7v2.5h-1.7c-0.9 0-1.7 0.7-1.7 1.7v2.5c0 0.9 0.7 1.7 1.7 1.7h1.7c0.9 0 1.7-0.7 1.7-1.7v-6.7c-0.1-4.5-3.9-8.3-8.5-8.3z" display="inline" fill="#b9bbbe"/>
</g>
<g transform="translate(-.8 -.5)" clip-rule="evenodd" fill="#8e9297" fill-rule="evenodd">
	<path class="st3" d="m20.6 14.4c0 2.6-2 4.6-4.6 4.6-2.4 0-4.6-2-4.6-4.6v-9.3c0-2.6 2-4.6 4.6-4.6s4.6 2 4.6 4.6zm-4.7 8c4.3 0 8.2-3.3 8.2-8h2.6c0 5.4-4.3 9.7-9.3 10.4v5h-3v-5c-5-0.7-9.3-5.2-9.3-10.4h2.6c0.1 4.7 4 8 8.2 8zm0-18.8c-1.3 0-1.5 1.1-1.5 1.5v9.3c0 0.6 0.4 1.5 1.5 1.5 1.3 0 1.5-1.1 1.5-1.5v-9.3c0.2-0.5-0.1-1.5-1.5-1.5z"/>
	<path class="st3" d="m20.6 14.4c0 2.6-2 4.6-4.6 4.6-2.4 0-4.6-2-4.6-4.6v-9.3c0-2.6 2-4.6 4.6-4.6s4.6 2 4.6 4.6zm-4.7 8c4.3 0 8.2-3.3 8.2-8h2.6c0 5.4-4.3 9.7-9.3 10.4v6.7h-3v-6.7c-5-0.7-9.3-5.2-9.3-10.4h2.6c0.1 4.7 4 8 8.2 8z"/>
</g>
<g class="st0" transform="translate(-.8 -.5)" display="none">
	<path class="st2" d="m22.8 12.6-2 2v-2.4c0-1.1-0.9-2-1.9-2h-9.4c-1.1 0-1.9 0.9-1.9 2v7c0 1.1 0.9 2 1.9 2h9.1c1.1 0 1.9-0.9 1.9-2v-2.2l2 2c0.6 0.6 1.6 0.1 1.6-0.7v-4.9c0.2-1-0.8-1.4-1.3-0.8z" display="inline" fill="#b9bbbe"/>
</g>
<polygon class="st4" transform="translate(-.8 -.5)" points="5.1 10 2.8 12.5 0.8 10.5 3.1 8.1 0.8 5.6 2.8 3.6 5.1 6.1 7.4 3.6 9.4 5.6 7.1 8.1 9.4 10.5 7.6 12.5" fill="#8e9297"/>
</svg>
