<svg width="14" height="14" viewBox="0 0 14 14" fill="none" xmlns="http://www.w3.org/2000/svg">
<path d="M7 0C3.1402 0 0 3.1409 0 7C0 10.8605 3.1402 14 7 14C10.8598 14 14 10.8605 14 7C14 3.1409 10.8598 0 7 0ZM7 11.375C6.517 11.375 6.125 10.9837 6.125 10.5C6.125 10.017 6.517 9.625 7 9.625C7.483 9.625 7.875 10.017 7.875 10.5C7.875 10.9837 7.483 11.375 7 11.375ZM7.7 8.3125V9.1H6.3V7H7C7.7728 7 8.4 6.3721 8.4 5.6C8.4 4.8272 7.7728 4.2 7 4.2C6.2272 4.2 5.6 4.8272 5.6 5.6H4.2C4.2 4.0565 5.4565 2.8 7 2.8C8.5435 2.8 9.8 4.0565 9.8 5.6C9.8 6.9027 8.9061 8.0003 7.7 8.3125Z" fill="#747F8D"/>
</svg>
