<svg width="60" height="38" viewBox="0 0 60 38" fill="#FC615D" xmlns="http://www.w3.org/2000/svg">
<path fill-rule="evenodd" clip-rule="evenodd" d="M6.66437 5.84615C6.66437 4.29566 7.2803 2.80867 8.37667 1.7123C9.47303 0.615932 10.96 0 12.5105 0H47.5874C49.1379 0 50.6249 0.615932 51.7213 1.7123C52.8177 2.80867 53.4336 4.29566 53.4336 5.84615V29.2308C53.4336 30.266 53.159 31.2728 52.6503 32.1541H56.3566C57.971 32.1541 59.2797 33.4628 59.2797 35.0771C59.2797 36.6915 57.971 38.0002 56.3566 38.0002H3.74125C2.12688 38.0002 0.818176 36.6915 0.818176 35.0771C0.818176 33.4628 2.12688 32.1541 3.74125 32.1541H7.44771C6.93892 31.2728 6.66437 30.266 6.66437 29.2308V5.84615ZM12.5105 2.92308C11.7353 2.92308 10.9918 3.23104 10.4436 3.77923C9.89541 4.32741 9.58744 5.07091 9.58744 5.84615V29.2308C9.58744 30.006 9.89541 30.7495 10.4436 31.2977C10.9918 31.8459 11.7353 32.1538 12.5105 32.1538H47.5874C48.3627 32.1538 49.1062 31.8459 49.6544 31.2977C50.2026 30.7495 50.5105 30.006 50.5105 29.2308V5.84615C50.5105 5.07091 50.2026 4.32741 49.6544 3.77923C49.1062 3.23104 48.3627 2.92308 47.5874 2.92308H12.5105ZM30.049 29.2307C29.6614 29.2307 29.2896 29.0767 29.0156 28.8026C28.7415 28.5285 28.5875 28.1568 28.5875 27.7692V10.8358L23.7761 15.6501C23.5017 15.9245 23.1294 16.0787 22.7413 16.0787C22.3532 16.0787 21.981 15.9245 21.7066 15.6501C21.4321 15.3756 21.2779 15.0034 21.2779 14.6153C21.2779 14.2272 21.4321 13.855 21.7066 13.5805L29.0143 6.27284C29.15 6.13673 29.3113 6.02875 29.4889 5.95507C29.6664 5.88139 29.8568 5.84346 30.049 5.84346C30.2413 5.84346 30.4316 5.88139 30.6092 5.95507C30.7867 6.02875 30.948 6.13673 31.0838 6.27284L38.3915 13.5805C38.6659 13.855 38.8201 14.2272 38.8201 14.6153C38.8201 15.0034 38.6659 15.3756 38.3915 15.6501C38.117 15.9245 37.7448 16.0787 37.3567 16.0787C36.9686 16.0787 36.5964 15.9245 36.3219 15.6501L31.5106 10.8358V27.7692C31.5106 28.1568 31.3566 28.5285 31.0825 28.8026C30.8084 29.0767 30.4366 29.2307 30.049 29.2307Z" fill="#FC615D" fill-opacity="0.6"/>
</svg>
