<svg width="23" height="22" viewBox="0 0 23 22" fill="none" xmlns="http://www.w3.org/2000/svg">
<path fill-rule="evenodd" clip-rule="evenodd" d="M11.3584 0.0925776C10.9056 -0.0956458 10.3851 0.00824373 10.0389 0.357801L4.84211 6.10961H1.21053C0.544737 6.10961 0 6.66084 0 7.33184V14.6652C0 15.3374 0.544737 15.8874 1.21053 15.8874H4.84211L10.0389 21.6417C10.3851 21.9912 10.9056 22.0963 11.3584 21.9069C11.8111 21.7174 12.1053 21.2713 12.1053 20.7763V1.2207C12.1053 0.728137 11.8111 0.279579 11.3584 0.0925776ZM14.5263 2.44281V4.88727C17.8637 4.88727 20.5789 7.62996 20.5789 10.9985C20.5789 14.3682 17.8637 17.1096 14.5263 17.1096V19.5541C19.1989 19.5541 23 15.7175 23 10.9985C23 6.28184 19.1989 2.44281 14.5263 2.44281ZM14.5263 7.33173C16.5285 7.33173 18.1579 8.97814 18.1579 10.9985C18.1579 13.0213 16.5285 14.6652 14.5263 14.6652V12.2207C15.1933 12.2207 15.7368 11.6719 15.7368 10.9985C15.7368 10.325 15.1933 9.77625 14.5263 9.77625V7.33173Z" fill="#8E9297"/>
</svg>
