<?xml version="1.0" encoding="UTF-8"?>
<!-- Generator: Adobe Illustrator 22.0.1, SVG Export Plug-In . SVG Version: 6.00 Build 0)  -->
<svg version="1.1" id="Layer_1" xmlns="http://www.w3.org/2000/svg" xmlns:xlink="http://www.w3.org/1999/xlink" x="0px" y="0px" viewBox="0 0 144 144" style="enable-background:new 0 0 144 144;" xml:space="preserve">
<style type="text/css">
	.st0{fill:#008BEF;}
	.st1{fill:#FFFFFF;}
</style>
<g>
	<g>
		<circle class="st0" cx="71.8" cy="72.5" r="65.1"/>
		<path class="st1" d="M71.8,138.8c-36.6,0-66.3-29.7-66.3-66.3S35.2,6.2,71.8,6.2s66.3,29.7,66.3,66.3S108.3,138.8,71.8,138.8z     M71.8,8.5C36.5,8.5,7.8,37.2,7.8,72.5s28.7,63.9,63.9,63.9s63.9-28.7,63.9-63.9S107,8.5,71.8,8.5z"/>
	</g>
	<path class="st1" d="M107.5,68.7L54.8,38.3c-2.5-1.4-5.6,0.4-5.6,3.2v60.8c0,2.9,3.1,4.6,5.6,3.2l52.7-30.4   C109.9,73.7,109.9,70.1,107.5,68.7z"/>
</g>
</svg>