<?xml version="1.0" encoding="UTF-8"?>
<!-- Generator: Adobe Illustrator 22.0.1, SVG Export Plug-In . SVG Version: 6.00 Build 0)  -->
<svg width="132.6" height="132.6" version="1.1" viewBox="0 0 132.6 132.6" xml:space="preserve" xmlns="http://www.w3.org/2000/svg" xmlns:cc="http://creativecommons.org/ns#" xmlns:dc="http://purl.org/dc/elements/1.1/" xmlns:rdf="http://www.w3.org/1999/02/22-rdf-syntax-ns#"><metadata><rdf:RDF><cc:Work rdf:about=""><dc:format>image/svg+xml</dc:format><dc:type rdf:resource="http://purl.org/dc/dcmitype/StillImage"/><dc:title/></cc:Work></rdf:RDF></metadata>
<style type="text/css">
	.st0{fill:#008BEF;}
	.st1{fill:#FFFFFF;}
</style>
<g transform="translate(-5.5,-6.2)">
	
		<circle class="st0" cx="71.8" cy="72.5" r="65.1" fill="#008bef"/>
		<path class="st1" d="m71.8 138.8c-36.6 0-66.3-29.7-66.3-66.3s29.7-66.3 66.3-66.3 66.3 29.7 66.3 66.3-29.8 66.3-66.3 66.3zm0-130.3c-35.3 0-64 28.7-64 64s28.7 63.9 63.9 63.9 63.9-28.7 63.9-63.9-28.6-64-63.8-64z" fill="#fff"/>
	
	<path class="st1" d="m107.5 68.7-52.7-30.4c-2.5-1.4-5.6 0.4-5.6 3.2v60.8c0 2.9 3.1 4.6 5.6 3.2l52.7-30.4c2.4-1.4 2.4-5 0-6.4z" fill="#fff"/>
</g>
</svg>
