<?xml version="1.0" encoding="utf-8"?>
<!-- Generator: Adobe Illustrator 24.2.0, SVG Export Plug-In . SVG Version: 6.00 Build 0)  -->
<svg version="1.1" id="Layer_1" xmlns="http://www.w3.org/2000/svg" xmlns:xlink="http://www.w3.org/1999/xlink" x="0px" y="0px"
	 viewBox="0 0 125.14 125.24" style="enable-background:new 0 0 125.14 125.24;" xml:space="preserve">
<style type="text/css">
	.st0{opacity:0.74;fill:#D7D7D7;}
</style>
<path class="st0" d="M122.83,24.63c-0.01-12.78-9.28-22.03-22.08-22.04c-25.33-0.01-50.65-0.01-75.98,0
	c-12.91,0-22.16,9.23-22.16,22.12c-0.01,25.32-0.01,50.65,0,75.97c0.01,12.89,9.25,22.12,22.16,22.12c25.27,0.01,50.54,0.01,75.81,0
	c13.02,0,22.24-9.2,22.25-22.2c0.01-12.58,0-25.16,0-37.74C122.84,50.12,122.85,37.37,122.83,24.63z"/>
<path d="M106.06,66.41H19.39c-0.78,0-1.42-0.63-1.42-1.42l0-4.6c0-0.78,0.63-1.42,1.42-1.42h86.67c0.78,0,1.42,0.63,1.42,1.42v4.6
	C107.48,65.78,106.84,66.41,106.06,66.41z"/>
</svg>
