<?xml version="1.0" encoding="UTF-8"?>
<svg width="27" height="18" fill="none" version="1.1" viewBox="0 0 27 18" xmlns="http://www.w3.org/2000/svg" xmlns:cc="http://creativecommons.org/ns#" xmlns:dc="http://purl.org/dc/elements/1.1/" xmlns:rdf="http://www.w3.org/1999/02/22-rdf-syntax-ns#">
 <metadata>
  <rdf:RDF>
   <cc:Work rdf:about="">
    <dc:format>image/svg+xml</dc:format>
    <dc:type rdf:resource="http://purl.org/dc/dcmitype/StillImage"/>
    <dc:title/>
   </cc:Work>
  </rdf:RDF>
 </metadata>
 <g fill="#000">
  <path d="M25.575 7.5H1.425C0.637994 7.5 0 8.13799 0 8.925V9.075C0 9.86201 0.637994 10.5 1.425 10.5H25.575C26.362 10.5 27 9.86201 27 9.075V8.925C27 8.13799 26.362 7.5 25.575 7.5Z"/>
  <path d="M25.575 15H1.425C0.637994 15 0 15.638 0 16.425V16.575C0 17.362 0.637994 18 1.425 18H25.575C26.362 18 27 17.362 27 16.575V16.425C27 15.638 26.362 15 25.575 15Z"/>
  <path d="M25.575 0H1.425C0.637994 0 0 0.637994 0 1.425V1.575C0 2.36201 0.637994 3 1.425 3H25.575C26.362 3 27 2.36201 27 1.575V1.425C27 0.637994 26.362 0 25.575 0Z"/>
 </g>
</svg>
