<?xml version="1.0" encoding="UTF-8"?>
<svg enable-background="new -14 64 582 665" version="1.1" viewBox="-14 64 582 665" xml:space="preserve" xmlns="http://www.w3.org/2000/svg" xmlns:cc="http://creativecommons.org/ns#" xmlns:dc="http://purl.org/dc/elements/1.1/" xmlns:rdf="http://www.w3.org/1999/02/22-rdf-syntax-ns#"><metadata><rdf:RDF><cc:Work rdf:about=""><dc:format>image/svg+xml</dc:format><dc:type rdf:resource="http://purl.org/dc/dcmitype/StillImage"/><dc:title/></cc:Work></rdf:RDF></metadata>
<g id="_x23_ffed3dff">
	<path d="m-12.6 251.5c8.4-6.3 10.3-7.9 15.5-11.8 73.2-58.3 146.8-116.4 220-174.8 2.9 16 5.7 32.1 8.4 48.1 0.8 4.9 1.5 9.8 2.8 14.5-2.1 2.1-4.5 3.9-6.8 5.8-59.4 47.2-119 94.3-178.2 141.7" fill="#FFED3D"/>
</g>
<g id="_x23_ff44a6ff" fill="#FF44A6">
	<path d="m222.9 64.8c17 6.1 33.8 12.5 50.9 18.4 13.5 5.7 27.6 9.6 41.2 15.2 9.5 3.3 19 6.9 28.5 10.2 13.9 5.6 28.4 9.9 42.3 15.7 11.1 4 22.4 7.6 33.4 12 41.7 15.1 83.3 30.4 125 45.4 7.4 2.6 14.6 5.8 22.2 8.1-21.1 11.6-41.8 24.2-63 35.8-11.1-4.8-22.7-8.2-33.9-12.6-74-26.9-147.9-53.8-221.9-80.7-4.5-1.6-8.9-3.5-13.5-4.7-1.3-4.8-2-9.7-2.8-14.5-2.8-16.2-5.5-32.3-8.4-48.3z"/>
	<path d="m19.2 263.4c0.1 0.1 0.4 0.2 0.5 0.2-0.1 0-0.3-0.1-0.5-0.2z"/>
</g>
<g id="_x23_000000ff" fill="#fff">
	<path d="m227.2 133.3c2.3-1.9 4.7-3.7 6.8-5.8 4.6 1.2 9 3.1 13.5 4.7 74 26.9 147.9 53.8 221.9 80.7 11.2 4.4 22.8 7.9 33.9 12.6 0 77.5 0.1 155 0.2 232.5 0.2 14.6-0.4 29.3 0.2 43.9 0 1.5-0.9 2.8-2.1 3.7-58.7 46.7-117.4 93.3-176 140-3.1 2.4-6.2 4.9-9.1 7.5-3.2 1.5-6.4-1.5-9.5-2.2-85.8-31.1-171.5-62.5-257.4-93.5-0.3-23.4 0.1-46.9-0.2-70.3 0.3-24-0.2-48 0.1-72-0.3-27.7 0.1-55.3-0.2-83 0.3-19 0.1-38-0.1-57 59.1-47.5 118.7-94.6 178-141.8z" fill="#fff"/>
</g>
<g id="_x23_0d2980ff">
	<path d="m566.3 189.7c0.8 7.1 0.1 14.2 0.1 21.3-0.1 15.6 0.6 31.1 0.1 46.7-0.3 18.4 0.5 36.8 0 55.3-0.1 12.7 0.1 25.4 0.3 38-0.9 21.7 0.4 43.3-0.2 65-0.2 9.3 0.3 18.7 0 28.1-0.1 2 0.3 4 0.5 6-0.9 18-0.7 36-0.1 53.9-0.5 12.3-0.6 24.7-0.2 37l-0.4-0.3c-10.2-7-21.1-13-31.5-19.6-10.5-6.3-20.8-12.9-31.3-19.1-0.5-14.6 0-29.3-0.2-43.9-0.1-77.5-0.2-155-0.2-232.5 21.3-11.7 42-24.3 63.1-35.9z" fill="#0D2980"/>
</g>
<g id="_x23_ff0828ff">
	<path d="m-12.6 251.5c10.8 3.5 21.2 8.1 31.9 11.9 0.1 0.1 0.4 0.2 0.5 0.2 9.8 3.7 19.5 7.7 29.3 11.3 0.3 19 0.4 38 0.1 57 0.3 27.7-0.1 55.3 0.2 83-0.3 24 0.2 48-0.1 72 0.3 23.4-0.1 46.9 0.2 70.3-20.6 15-41.1 30.2-61.8 45-0.3-6.1-0.2-12.3 0-18.4 0.2-18-0.6-36 0-54 0.1-16.7-0.6-33.3-0.1-50 0-13.3-0.1-26.7-0.3-40 0.3-13 0.3-26 0.1-39-0.4-14.7 0.3-29.3 0-44 0-8-0.4-16-0.2-24.1 0.6-26.9-0.4-54.1 0.2-81.2z" fill="#FF0828"/>
</g>
<g id="_x23_00903dff">
	<path d="m503.7 501.9c10.5 6.2 20.8 12.8 31.3 19.1 10.5 6.6 21.4 12.6 31.5 19.6-7.4 6.5-15.5 12.2-22.9 18.8-3.2 0.8-4.4 4.7-7.6 5.4-16.7 13.7-34 26.8-50.5 40.7-2.2 0.6-3.5 2.7-5.2 4.1-7 4.5-13.1 10.3-19.7 15.2-9.2 7.8-19 14.8-28.1 22.7-23.8 18.1-46.9 37.3-70.5 55.7-9 7.6-18.7 14.4-27.5 22.3-1.1 0.5-2.1 1.2-3.1 2-5.5-24.7-9.9-49.6-15.2-74.4 3-2.6 6-5 9.1-7.5 58.7-46.7 117.4-93.3 176-140 1.5-0.9 2.4-2.1 2.4-3.7z" fill="#00903D"/>
</g>
<g id="_x23_009eddff">
	<path d="m49.5 557.3c85.8 31 171.6 62.4 257.4 93.5 3.1 0.7 6.3 3.6 9.5 2.2 5.3 24.7 9.7 49.7 15.2 74.4l0.2 0.9c-26.5-10.6-53.6-19.5-80.2-29.7-17.5-6.5-35.3-12.4-52.7-19.2-21.9-7.9-43.8-15.7-65.5-23.9-20.9-7.1-41.5-15.3-62.3-22.6-12.2-4.3-24.4-8.8-36.5-13.4-15.6-5.7-31.5-10.9-46.8-17.2 20.7-14.8 41.2-30 61.7-45z" fill="#009EDD"/>
</g>
</svg>
