<?xml version="1.0" encoding="utf-8"?>
<!-- Generator: Adobe Illustrator 25.2.3, SVG Export Plug-In . SVG Version: 6.00 Build 0)  -->
<svg version="1.1" id="Layer_1" xmlns="http://www.w3.org/2000/svg" xmlns:xlink="http://www.w3.org/1999/xlink" x="0px" y="0px"
	 viewBox="0 0 32 32" style="enable-background:new 0 0 32 32;" xml:space="preserve">
<style type="text/css">
	.st0{display:none;}
	.st1{display:inline;fill-rule:evenodd;clip-rule:evenodd;fill:#B9BBBE;}
	.st2{display:inline;fill:#B9BBBE;}
	.st3{fill-rule:evenodd;clip-rule:evenodd;fill:#042042;}
</style>
<g id="Layer_1_1_" class="st0">
	<path class="st1" d="M22.5,14.4h1.9v3.3h-1.9c-0.2,0.8-0.5,1.5-1,2.1l1.2,1.2L21,22.6l-1.2-1.2c-0.6,0.4-1.4,0.8-2.1,1v1.9h-3.3
		v-1.9c-0.8-0.2-1.5-0.5-2.1-1l-1.2,1.2L9.4,21l1.2-1.2c-0.4-0.6-0.8-1.4-1-2.1H7.6v-3.3h1.9c0.2-0.8,0.5-1.5,1-2.1l-1.2-1.3L11,9.2
		l1.2,1.2c0.6-0.4,1.4-0.8,2.1-1V7.6h3.3v1.9c0.8,0.2,1.5,0.5,2.1,1l1.2-1.2l1.7,1.7l-1.2,1.1C22,12.9,22.2,13.5,22.5,14.4z
		 M15.9,19.3c1.8,0,3.3-1.5,3.3-3.3s-1.5-3.3-3.3-3.3s-3.3,1.5-3.3,3.3S14.1,19.3,15.9,19.3z"/>
</g>
<g id="Layer_2_1_" class="st0">
	<path class="st2" d="M15.9,7.6c-4.6,0-8.3,3.7-8.3,8.3v6.7c0,0.9,0.7,1.7,1.7,1.7H11c0.9,0,1.7-0.7,1.7-1.7v-2.5
		c0-0.9-0.7-1.7-1.7-1.7H9.3v-2.5c0-3.7,3-6.7,6.7-6.7s6.7,3,6.7,6.7v2.5H21c-0.9,0-1.7,0.7-1.7,1.7v2.5c0,0.9,0.7,1.7,1.7,1.7h1.7
		c0.9,0,1.7-0.7,1.7-1.7v-6.7C24.3,11.4,20.5,7.6,15.9,7.6z"/>
</g>
<g id="Layer_3">
	<path class="st3" d="M20.6,14.4c0,2.6-2,4.6-4.6,4.6c-2.4,0-4.6-2-4.6-4.6V5.1c0-2.6,2-4.6,4.6-4.6s4.6,2,4.6,4.6V14.4z M15.9,22.4
		c4.3,0,8.2-3.3,8.2-8h2.6c0,5.4-4.3,9.7-9.3,10.4v5h-3v-5c-5-0.7-9.3-5.2-9.3-10.4h2.6C7.8,19.1,11.7,22.4,15.9,22.4z M15.9,3.6
		c-1.3,0-1.5,1.1-1.5,1.5v9.3c0,0.6,0.4,1.5,1.5,1.5c1.3,0,1.5-1.1,1.5-1.5V5.1C17.6,4.6,17.3,3.6,15.9,3.6z"/>
	<path class="st3" d="M20.6,14.4c0,2.6-2,4.6-4.6,4.6c-2.4,0-4.6-2-4.6-4.6V5.1c0-2.6,2-4.6,4.6-4.6s4.6,2,4.6,4.6V14.4z M15.9,22.4
		c4.3,0,8.2-3.3,8.2-8h2.6c0,5.4-4.3,9.7-9.3,10.4v6.7h-3v-6.7c-5-0.7-9.3-5.2-9.3-10.4h2.6C7.8,19.1,11.7,22.4,15.9,22.4z"/>
</g>
<g id="Layer_4" class="st0">
	<path class="st2" d="M22.8,12.6l-2,2v-2.4c0-1.1-0.9-2-1.9-2H9.5c-1.1,0-1.9,0.9-1.9,2v7c0,1.1,0.9,2,1.9,2h9.1
		c1.1,0,1.9-0.9,1.9-2V17l2,2c0.6,0.6,1.6,0.1,1.6-0.7v-4.9C24.3,12.4,23.3,12,22.8,12.6z"/>
</g>
</svg>
