<svg width="16" height="24" viewBox="0 0 16 24" fill="none" xmlns="http://www.w3.org/2000/svg">
<path fill-rule="evenodd" clip-rule="evenodd" d="M11.4171 10.8C11.4171 12.792 9.89714 14.4 8 14.4C6.10286 14.4 4.57143 12.792 4.57143 10.8V3.6C4.57143 1.608 6.10286 0 8 0C9.89714 0 11.4286 1.608 11.4286 3.6L11.4171 10.8ZM8 16.92C11.1543 16.92 14.0571 14.4 14.0571 10.8H16C16 14.904 12.8914 18.288 9.14286 18.864V24H6.85714V18.864C3.10857 18.276 0 14.892 0 10.8H1.94286C1.94286 14.4 4.84571 16.92 8 16.92Z" fill="#8E9297"/>
</svg>
