<svg width="20" height="16" viewBox="0 0 20 16" fill="none" xmlns="http://www.w3.org/2000/svg">
<path fill-rule="evenodd" clip-rule="evenodd" d="M12 4C12 6.20502 10.206 8.00002 8 8.00002C5.795 8.00002 4 6.20502 4 4C4 1.795 5.794 0 8 0C10.206 0 12 1.795 12 4ZM0 15C0 11.467 3.29 9.00002 8 9.00002C12.711 9.00002 16 11.467 16 15V16H0V15Z" fill="#4F5659"/>
<path fill-rule="evenodd" clip-rule="evenodd" d="M12 4C12 6.20502 10.206 8.00002 8 8.00002C5.795 8.00002 4 6.20502 4 4C4 1.795 5.794 0 8 0C10.206 0 12 1.795 12 4ZM0 15C0 11.467 3.29 9.00002 8 9.00002C12.711 9.00002 16 11.467 16 15V16H0V15Z" fill="#4F5659"/>
<path d="M18 16.0001H20V15.0001C20 12.4374 18.2696 10.4356 15.5212 9.5293C17.062 10.9068 18 12.8 18 15.0001V16.0001Z" fill="#4F5659"/>
<path d="M12.8834 7.90176C14.6657 7.49846 16.0001 5.90176 16.0001 4.00004C16.0001 1.96322 14.4693 0.276242 12.4971 0.0307617C13.4322 1.08917 14.0001 2.4793 14.0001 4.00004C14.0001 5.44294 13.4889 6.76826 12.6378 7.80426C12.7203 7.83586 12.8022 7.86836 12.8834 7.90176Z" fill="#4F5659"/>
</svg>
