<?xml version="1.0" encoding="utf-8"?>
<!-- Generator: Adobe Illustrator 25.2.3, SVG Export Plug-In . SVG Version: 6.00 Build 0)  -->
<svg version="1.1" id="Layer_1" xmlns="http://www.w3.org/2000/svg" xmlns:xlink="http://www.w3.org/1999/xlink" x="0px" y="0px"
	 viewBox="0 0 32 21" style="enable-background:new 0 0 32 21;" xml:space="preserve">
<style type="text/css">
	.st0{display:none;}
	.st1{display:inline;fill-rule:evenodd;clip-rule:evenodd;fill:#B9BBBE;}
	.st2{display:inline;fill:#B9BBBE;}
	.st3{fill:#042042;}
</style>
<g id="Layer_1_1_" class="st0">
	<path class="st1" d="M22.5,8.9h1.9v3.3h-1.9c-0.2,0.8-0.5,1.5-1,2.1l1.2,1.2L21,17.1l-1.2-1.2c-0.6,0.4-1.4,0.8-2.1,1v1.9h-3.3
		v-1.9c-0.8-0.2-1.5-0.5-2.1-1l-1.2,1.2l-1.7-1.6l1.2-1.2c-0.4-0.6-0.8-1.4-1-2.1h-2V8.9h1.9c0.2-0.8,0.5-1.5,1-2.1L9.3,5.5L11,3.7
		l1.2,1.2c0.6-0.4,1.4-0.8,2.1-1V2.1h3.3V4c0.8,0.2,1.5,0.5,2.1,1l1.2-1.2l1.7,1.7l-1.2,1.1C22,7.4,22.2,8,22.5,8.9z M15.9,13.8
		c1.8,0,3.3-1.5,3.3-3.3s-1.5-3.3-3.3-3.3s-3.3,1.5-3.3,3.3S14.1,13.8,15.9,13.8z"/>
</g>
<g id="Layer_2_1_" class="st0">
	<path class="st2" d="M15.9,2.1c-4.6,0-8.3,3.7-8.3,8.3v6.7c0,0.9,0.7,1.7,1.7,1.7H11c0.9,0,1.7-0.7,1.7-1.7v-2.5
		c0-0.9-0.7-1.7-1.7-1.7H9.3v-2.5c0-3.7,3-6.7,6.7-6.7s6.7,3,6.7,6.7v2.5H21c-0.9,0-1.7,0.7-1.7,1.7v2.5c0,0.9,0.7,1.7,1.7,1.7h1.7
		c0.9,0,1.7-0.7,1.7-1.7v-6.7C24.3,5.9,20.5,2.1,15.9,2.1z"/>
</g>
<g id="Layer_3" class="st0">
	<path class="st1" d="M18.5,9.6c0,1.4-1.1,2.5-2.5,2.5c-1.3,0-2.5-1.1-2.5-2.5v-5c0-1.4,1.1-2.5,2.5-2.5s2.5,1.1,2.5,2.5V9.6z
		 M15.9,14c2.3,0,4.4-1.8,4.4-4.3h1.4c0,2.9-2.3,5.2-5,5.6V18h-1.6v-2.7c-2.7-0.4-5-2.8-5-5.6h1.4C11.5,12.1,13.6,14,15.9,14z
		 M15.9,3.8c-0.7,0-0.8,0.6-0.8,0.8v5c0,0.3,0.2,0.8,0.8,0.8c0.7,0,0.8-0.6,0.8-0.8v-5C16.8,4.4,16.6,3.8,15.9,3.8z"/>
	<path class="st1" d="M18.5,9.6c0,1.4-1.1,2.5-2.5,2.5c-1.3,0-2.5-1.1-2.5-2.5v-5c0-1.4,1.1-2.5,2.5-2.5s2.5,1.1,2.5,2.5V9.6z
		 M15.9,14c2.3,0,4.4-1.8,4.4-4.3h1.4c0,2.9-2.3,5.2-5,5.6v3.6h-1.6v-3.6c-2.7-0.4-5-2.8-5-5.6h1.4C11.5,12.1,13.6,14,15.9,14z"/>
</g>
<path class="st3" d="M28.9,4.6l-4,3.8V3.8c0-2.1-1.7-3.8-3.6-3.8H3.8c-2,0-3.6,1.7-3.6,3.8v13.3c0,2.1,1.7,3.8,3.6,3.8h17.3
	c2.1,0,3.6-1.7,3.6-3.8v-4.4l3.8,3.8c2,2,3,1.2,3-1.3V5.9C31.5,3.9,30.5,2.9,28.9,4.6z M17.9,13.4l-2.1,2.3L13,12.8l-2.6,2.8
	l-2.3-2.3l2.6-2.8L8.1,7.6l2.3-2.3L13,8.1l2.6-2.8l2.3,2.3l-2.6,2.8L17.9,13.4z"/>
</svg>
