<?xml version="1.0" encoding="UTF-8" ?>
<!DOCTYPE svg PUBLIC "-//W3C//DTD SVG 1.1//EN" "http://www.w3.org/Graphics/SVG/1.1/DTD/svg11.dtd">
<svg width="512pt" height="512pt" viewBox="0 0 512 512" version="1.1" xmlns="http://www.w3.org/2000/svg">
<g id="#000000ff">
<path fill="#ffffff" opacity="1.00" d=" M 48.47 75.37 C 57.40 67.66 69.29 63.83 81.01 64.00 C 197.68 64.00 314.34 64.00 431.01 64.00 C 438.14 63.97 445.34 65.18 451.88 68.09 C 468.75 75.11 479.93 92.87 479.95 111.01 C 480.06 184.67 479.96 258.34 480.01 332.01 C 480.09 338.07 479.75 344.21 477.99 350.05 C 474.81 361.28 467.26 371.21 457.20 377.16 C 449.66 381.72 440.84 383.95 432.05 383.98 C 406.44 384.03 380.82 383.98 355.21 384.00 C 360.07 390.72 364.99 397.40 369.83 404.14 C 378.01 415.84 380.99 431.15 377.17 444.97 C 372.06 464.87 352.62 479.93 332.07 479.97 C 281.39 480.04 230.70 479.98 180.02 480.00 C 162.84 480.17 146.24 470.23 137.52 455.56 C 128.23 439.39 130.16 418.05 141.21 403.22 C 146.25 396.68 151.64 390.43 156.79 384.00 C 131.20 383.98 105.61 384.03 80.02 383.98 C 66.92 384.02 53.76 378.76 44.81 369.11 C 36.17 360.05 31.78 347.44 32.00 335.00 C 32.01 260.66 31.98 186.32 32.02 111.98 C 31.93 98.16 37.86 84.32 48.47 75.37 M 250.13 128.19 C 227.67 129.47 205.89 139.15 189.70 154.74 C 173.89 169.81 163.39 190.38 160.76 212.08 C 158.29 231.44 161.95 251.53 171.16 268.75 C 181.78 288.83 199.72 304.94 220.87 313.26 C 242.43 321.91 267.18 322.21 288.95 314.11 C 312.22 305.64 331.82 287.74 342.51 265.42 C 352.44 245.00 354.66 220.98 348.67 199.08 C 342.40 175.56 326.70 154.78 305.93 142.11 C 289.35 131.88 269.58 126.96 250.13 128.19 M 363.38 128.54 C 354.22 130.38 349.95 141.18 352.79 149.50 C 354.49 155.67 360.61 159.88 366.91 159.94 C 377.96 160.07 389.01 159.98 400.06 159.99 C 405.46 160.08 411.09 157.55 413.79 152.72 C 417.78 145.66 416.47 135.24 409.39 130.61 C 403.67 126.78 396.48 128.31 390.02 128.00 C 381.15 128.29 372.18 127.37 363.38 128.54 Z" />
<path fill="#ffffff" opacity="1.00" d=" M 252.15 192.24 C 267.95 189.97 284.09 201.40 287.20 217.05 C 291.25 233.23 280.28 251.14 264.06 254.94 C 249.45 259.09 232.78 251.01 226.82 237.09 C 220.32 223.35 225.48 205.52 238.30 197.37 C 242.43 194.59 247.22 192.84 252.15 192.24 Z" />
</g>
</svg>
