<?xml version="1.0" encoding="UTF-8" ?>
<!DOCTYPE svg PUBLIC "-//W3C//DTD SVG 1.1//EN" "http://www.w3.org/Graphics/SVG/1.1/DTD/svg11.dtd">
<svg width="512pt" height="512pt" viewBox="0 0 512 512" version="1.1" xmlns="http://www.w3.org/2000/svg">
<g id="#000000ff">
<path fill="#ffffff" opacity="1.00" d=" M 32.14 50.06 C 30.78 41.30 38.19 32.57 46.94 32.04 C 51.73 31.63 56.42 33.84 59.68 37.26 C 68.53 46.17 77.48 54.98 86.29 63.93 C 201.53 64.11 316.78 63.93 432.02 64.02 C 443.65 64.00 455.38 68.05 464.08 75.85 C 471.77 82.58 477.01 91.96 478.97 101.97 C 480.01 106.89 480.03 111.95 480.01 116.96 C 479.98 189.96 480.03 262.97 479.98 335.97 C 480.00 348.11 475.55 360.33 467.14 369.17 C 459.11 377.77 447.71 383.01 436.00 383.80 C 426.16 384.24 416.30 383.88 406.45 384.01 C 428.53 406.11 450.62 428.19 472.71 450.27 C 476.64 453.79 480.15 458.46 479.99 464.01 C 480.13 472.90 471.67 480.51 462.90 479.90 C 459.15 479.46 455.52 477.84 452.82 475.19 C 314.82 337.20 176.83 199.21 38.83 61.22 C 35.59 58.26 32.65 54.58 32.14 50.06 M 235.98 130.14 C 215.78 134.43 197.29 145.83 184.02 161.61 C 198.99 176.49 213.82 191.52 228.84 206.36 C 235.99 197.34 247.27 190.89 259.04 192.16 C 274.20 193.34 287.18 206.69 287.90 221.88 C 288.78 233.34 282.40 244.15 273.67 251.14 C 288.55 266.17 303.47 281.16 318.55 295.98 C 329.28 286.58 338.25 275.08 343.99 261.97 C 353.90 239.80 354.55 213.78 346.11 191.04 C 338.04 168.94 321.52 150.11 300.72 139.14 C 281.09 128.63 257.72 125.41 235.98 130.14 M 363.36 128.55 C 353.98 130.45 349.79 141.68 352.98 150.08 C 354.87 155.99 360.87 159.89 366.97 159.94 C 377.64 160.09 388.31 159.95 398.98 160.01 C 402.61 160.06 406.38 159.43 409.44 157.34 C 418.49 151.36 418.20 135.63 408.72 130.20 C 403.09 126.88 396.29 128.31 390.09 128.00 C 381.19 128.30 372.19 127.36 363.36 128.55 Z" />
<path fill="#ffffff" opacity="1.00" d=" M 33.39 100.84 C 34.27 101.58 35.14 102.32 35.97 103.12 C 77.29 144.48 118.65 185.80 159.97 227.15 C 160.66 250.60 170.01 273.77 186.35 290.69 C 203.49 308.77 227.99 319.29 252.83 320.03 C 294.40 362.07 335.87 404.19 377.46 446.20 C 372.64 458.90 363.34 470.24 350.74 475.79 C 342.77 479.62 333.78 480.28 325.07 480.00 C 276.72 480.00 228.37 480.00 180.02 480.00 C 162.35 480.17 145.24 469.65 136.78 454.24 C 130.51 442.17 129.93 427.40 134.91 414.78 C 139.46 402.79 149.23 394.03 156.79 384.00 C 131.19 383.98 105.58 384.03 79.97 383.98 C 66.43 384.02 52.82 378.35 43.87 368.08 C 35.83 359.11 31.80 346.97 32.00 334.99 C 32.00 260.32 32.00 185.65 32.00 110.98 C 31.98 107.55 32.36 104.12 33.39 100.84 Z" />
</g>
</svg>
