<?xml version="1.0" encoding="utf-8"?>
<!-- Generator: Adobe Illustrator 24.2.0, SVG Export Plug-In . SVG Version: 6.00 Build 0)  -->
<svg version="1.1" id="Layer_1" xmlns="http://www.w3.org/2000/svg" xmlns:xlink="http://www.w3.org/1999/xlink" x="0px" y="0px"
	 viewBox="0 0 125.14 125.24" style="enable-background:new 0 0 125.14 125.24;" xml:space="preserve">
<style type="text/css">
	.st0{fill:#FFFFFF;stroke:#000000;stroke-width:4.0707;stroke-miterlimit:10;}
</style>
<path class="st0" d="M122.83,24.63c-0.01-12.78-9.28-22.03-22.08-22.04c-25.33-0.01-50.65-0.01-75.98,0
	c-12.91,0-22.16,9.23-22.16,22.12c-0.01,25.32-0.01,50.65,0,75.97c0.01,12.89,9.25,22.12,22.16,22.12c25.27,0.01,50.54,0.01,75.81,0
	c13.02,0,22.24-9.2,22.25-22.2c0.01-12.58,0-25.16,0-37.74C122.84,50.12,122.85,37.37,122.83,24.63z"/>
<path d="M105.95,58.98H67.97c-0.85,0-1.53-0.69-1.53-1.53V19.47c0-0.85-0.69-1.53-1.53-1.53h-4.37c-0.85,0-1.53,0.69-1.53,1.53
	v37.98c0,0.85-0.69,1.53-1.53,1.53H19.5c-0.85,0-1.53,0.69-1.53,1.53v4.37c0,0.85,0.69,1.53,1.53,1.53h37.98
	c0.85,0,1.53,0.69,1.53,1.53v37.98c0,0.85,0.69,1.53,1.53,1.53h4.37c0.85,0,1.53-0.69,1.53-1.53V67.94c0-0.85,0.69-1.53,1.53-1.53
	h37.98c0.85,0,1.53-0.69,1.53-1.53v-4.37C107.48,59.67,106.79,58.98,105.95,58.98z"/>
</svg>
