<?xml version="1.0" encoding="UTF-8"?>
<svg width="24" height="23" fill="none" version="1.1" viewBox="0 0 24 23" xmlns="http://www.w3.org/2000/svg" xmlns:cc="http://creativecommons.org/ns#" xmlns:dc="http://purl.org/dc/elements/1.1/" xmlns:rdf="http://www.w3.org/1999/02/22-rdf-syntax-ns#">
 <metadata>
  <rdf:RDF>
   <cc:Work rdf:about="">
    <dc:format>image/svg+xml</dc:format>
    <dc:type rdf:resource="http://purl.org/dc/dcmitype/StillImage"/>
    <dc:title/>
   </cc:Work>
  </rdf:RDF>
 </metadata>
 <path d="m15.22 3.2174h-13.119c-0.42665 0-0.83583 0.16949-1.1375 0.47118-0.30169 0.30169-0.47118 0.71086-0.47118 1.1375v12.87c-0.003959 0.0777-0.003959 0.1555 0 0.2332l14.728-14.712z" fill="#fff"/>
 <path d="m22.58 4.9146c-0.1279-0.06108-0.2696-0.08729-0.4108-0.07599-0.1413 0.0113-0.277 0.05971-0.3936 0.14033l-4.3917 3.1128v-1.303l0.0054-3.5717-2.3518 3.556e-4 -14.545 14.582 4.792e-5 1.5032 4.3755 0.001404h10.907c0.4266 0 0.8358-0.1694 1.1375-0.4711s0.4712-0.7109 0.4712-1.1375v-3.2657l4.3596 3.1128c0.12 0.0855 0.2612 0.1364 0.4082 0.147 0.147 0.0107 0.2941-0.0192 0.4252-0.0864 0.1312-0.0673 0.2413-0.1692 0.3185-0.2948 0.0771-0.1256 0.1182-0.2699 0.1189-0.4173v-11.261c3e-4 -0.1477-0.04-0.29263-0.1167-0.41891-0.0766-0.12627-0.1865-0.22901-0.3176-0.29695z" fill="#fff"/>
</svg>
