<?xml version="1.0" encoding="utf-8"?>
<svg version="1.1" id="Layer_1" xmlns="http://www.w3.org/2000/svg" xmlns:xlink="http://www.w3.org/1999/xlink" x="0px" y="0px"
	 viewBox="-14 64 582 665" enable-background="new -14 64 582 665" xml:space="preserve">
<g id="_x23_ffed3dff">
	<path fill="#FFED3D" d="M-12.6,251.5L-12.6,251.5c8.4-6.3,10.3-7.9,15.5-11.8c73.2-58.3,146.8-116.4,220-174.8
		c2.9,16,5.7,32.1,8.4,48.1c0.8,4.9,1.5,9.8,2.8,14.5c-2.1,2.1-4.5,3.9-6.8,5.8C167.9,180.5,108.3,227.6,49.1,275"/>
</g>
<g id="_x23_ff44a6ff">
	<path fill="#FF44A6" d="M222.9,64.8c17,6.1,33.8,12.5,50.9,18.4c13.5,5.7,27.6,9.6,41.2,15.2c9.5,3.3,19,6.9,28.5,10.2
		c13.9,5.6,28.4,9.9,42.3,15.7c11.1,4,22.4,7.6,33.4,12c41.7,15.1,83.3,30.4,125,45.4c7.4,2.6,14.6,5.8,22.2,8.1
		c-21.1,11.6-41.8,24.2-63,35.8c-11.1-4.8-22.7-8.2-33.9-12.6c-74-26.9-147.9-53.8-221.9-80.7c-4.5-1.6-8.9-3.5-13.5-4.7
		c-1.3-4.8-2-9.7-2.8-14.5C228.5,96.9,225.8,80.8,222.9,64.8z"/>
	<path fill="#FF44A6" d="M19.2,263.4c0.1,0.1,0.4,0.2,0.5,0.2C19.6,263.6,19.4,263.5,19.2,263.4z"/>
</g>
<g id="_x23_000000ff">
	<path d="M227.2,133.3c2.3-1.9,4.7-3.7,6.8-5.8c4.6,1.2,9,3.1,13.5,4.7c74,26.9,147.9,53.8,221.9,80.7c11.2,4.4,22.8,7.9,33.9,12.6
		c0,77.5,0.1,155,0.2,232.5c0.2,14.6-0.4,29.3,0.2,43.9c0,1.5-0.9,2.8-2.1,3.7c-58.7,46.7-117.4,93.3-176,140
		c-3.1,2.4-6.2,4.9-9.1,7.5c-3.2,1.5-6.4-1.5-9.5-2.2c-85.8-31.1-171.5-62.5-257.4-93.5c-0.3-23.4,0.1-46.9-0.2-70.3
		c0.3-24-0.2-48,0.1-72c-0.3-27.7,0.1-55.3-0.2-83c0.3-19,0.1-38-0.1-57C108.3,227.6,167.9,180.5,227.2,133.3z"/>
</g>
<g id="_x23_0d2980ff">
	<path fill="#0D2980" d="M566.3,189.7c0.8,7.1,0.1,14.2,0.1,21.3c-0.1,15.6,0.6,31.1,0.1,46.7c-0.3,18.4,0.5,36.8,0,55.3
		c-0.1,12.7,0.1,25.4,0.3,38c-0.9,21.7,0.4,43.3-0.2,65c-0.2,9.3,0.3,18.7,0,28.1c-0.1,2,0.3,4,0.5,6c-0.9,18-0.7,36-0.1,53.9
		c-0.5,12.3-0.6,24.7-0.2,37l-0.4-0.3c-10.2-7-21.1-13-31.5-19.6c-10.5-6.3-20.8-12.9-31.3-19.1c-0.5-14.6,0-29.3-0.2-43.9
		c-0.1-77.5-0.2-155-0.2-232.5C524.5,213.9,545.2,201.3,566.3,189.7z"/>
</g>
<g id="_x23_ff0828ff">
	<path fill="#FF0828" d="M-12.6,251.5c10.8,3.5,21.2,8.1,31.9,11.9c0.1,0.1,0.4,0.2,0.5,0.2c9.8,3.7,19.5,7.7,29.3,11.3
		c0.3,19,0.4,38,0.1,57c0.3,27.7-0.1,55.3,0.2,83c-0.3,24,0.2,48-0.1,72c0.3,23.4-0.1,46.9,0.2,70.3c-20.6,15-41.1,30.2-61.8,45
		c-0.3-6.1-0.2-12.3,0-18.4c0.2-18-0.6-36,0-54c0.1-16.7-0.6-33.3-0.1-50c0-13.3-0.1-26.7-0.3-40c0.3-13,0.3-26,0.1-39
		c-0.4-14.7,0.3-29.3,0-44c0-8-0.4-16-0.2-24.1C-12.2,305.8-13.2,278.6-12.6,251.5z"/>
</g>
<g id="_x23_00903dff">
	<path fill="#00903D" d="M503.7,501.9c10.5,6.2,20.8,12.8,31.3,19.1c10.5,6.6,21.4,12.6,31.5,19.6c-7.4,6.5-15.5,12.2-22.9,18.8
		c-3.2,0.8-4.4,4.7-7.6,5.4c-16.7,13.7-34,26.8-50.5,40.7c-2.2,0.6-3.5,2.7-5.2,4.1c-7,4.5-13.1,10.3-19.7,15.2
		c-9.2,7.8-19,14.8-28.1,22.7c-23.8,18.1-46.9,37.3-70.5,55.7c-9,7.6-18.7,14.4-27.5,22.3c-1.1,0.5-2.1,1.2-3.1,2
		c-5.5-24.7-9.9-49.6-15.2-74.4c3-2.6,6-5,9.1-7.5c58.7-46.7,117.4-93.3,176-140C502.8,504.7,503.7,503.5,503.7,501.9z"/>
</g>
<g id="_x23_009eddff">
	<path fill="#009EDD" d="M49.5,557.3c85.8,31,171.6,62.4,257.4,93.5c3.1,0.7,6.3,3.6,9.5,2.2c5.3,24.7,9.7,49.7,15.2,74.4l0.2,0.9
		c-26.5-10.6-53.6-19.5-80.2-29.7c-17.5-6.5-35.3-12.4-52.7-19.2c-21.9-7.9-43.8-15.7-65.5-23.9c-20.9-7.1-41.5-15.3-62.3-22.6
		c-12.2-4.3-24.4-8.8-36.5-13.4c-15.6-5.7-31.5-10.9-46.8-17.2C8.5,587.5,29,572.3,49.5,557.3z"/>
</g>
</svg>
