<svg width="12" height="18" viewBox="0 0 12 18" fill="none" xmlns="http://www.w3.org/2000/svg">
<path fill-rule="evenodd" clip-rule="evenodd" d="M8.49175 8.1665C8.49175 9.54984 7.38341 10.6665 6.00008 10.6665C4.61675 10.6665 3.50008 9.54984 3.50008 8.1665V3.1665C3.50008 1.78317 4.61675 0.666504 6.00008 0.666504C7.38341 0.666504 8.50008 1.78317 8.50008 3.1665L8.49175 8.1665ZM6.00008 12.4165C8.30008 12.4165 10.4167 10.6665 10.4167 8.1665H11.8334C11.8334 11.0165 9.56675 13.3665 6.83341 13.7665V17.3332H5.16675V13.7665C2.43341 13.3582 0.166748 11.0082 0.166748 8.1665H1.58341C1.58341 10.6665 3.70008 12.4165 6.00008 12.4165Z" fill="#B9BBBE"/>
</svg>
