<?xml version="1.0" encoding="UTF-8"?>
<svg width="16" height="14.476" fill="none" version="1.1" viewBox="0 0 16 14.476" xmlns="http://www.w3.org/2000/svg" xmlns:cc="http://creativecommons.org/ns#" xmlns:dc="http://purl.org/dc/elements/1.1/" xmlns:rdf="http://www.w3.org/1999/02/22-rdf-syntax-ns#">
 <metadata>
  <rdf:RDF>
   <cc:Work rdf:about="">
    <dc:format>image/svg+xml</dc:format>
    <dc:type rdf:resource="http://purl.org/dc/dcmitype/StillImage"/>
    <dc:title/>
   </cc:Work>
  </rdf:RDF>
 </metadata>
 <path d="m5.6 6.4339c0.6329 0 1.2516-0.18867 1.7778-0.54215 0.52624-0.35348 0.93639-0.85589 1.1786-1.4437 0.24221-0.58782 0.30558-1.2346 0.1821-1.8587-0.12347-0.62402-0.42824-1.1972-0.87577-1.6471-0.44753-0.4499-1.0177-0.75628-1.6384-0.8804-0.62074-0.12413-1.2642-0.06042-1.8489 0.18306-0.58472 0.24348-1.0845 0.6558-1.4361 1.1848-0.35162 0.52902-0.5393 1.151-0.5393 1.7872 0 0.85319 0.33714 1.6714 0.93726 2.2747 0.60011 0.60329 1.414 0.94221 2.2627 0.94221zm6.4 1.6085c0.4747 0 0.9387-0.1415 1.3334-0.40661 0.3946-0.26512 0.7023-0.64193 0.8839-1.0828 0.1817-0.44086 0.2292-0.92598 0.1366-1.394-0.0926-0.46802-0.3212-0.89792-0.6568-1.2353-0.3357-0.33743-0.7633-0.56721-1.2289-0.66031-0.4655-0.09309-0.9481-0.04531-1.3866 0.1373-0.4386 0.18261-0.8134 0.49185-1.0771 0.88862-0.26374 0.39676-0.4045 0.86323-0.4045 1.3404 0 0.63989 0.25286 1.2536 0.7029 1.706 0.4501 0.45246 1.0606 0.70666 1.6971 0.70666zm3.2 5.6297c0.2122 0 0.4157-0.0848 0.5657-0.2356s0.2343-0.3554 0.2343-0.5687c-6e-4 -0.7516-0.2108-1.488-0.6067-2.1257-0.3959-0.6376-0.9616-1.1509-1.633-1.4817-0.6714-0.33077-1.4216-0.46575-2.1654-0.38962-0.7439 0.07612-1.4516 0.36031-2.0429 0.82032-0.78359-0.78465-1.7808-1.3185-2.8657-1.5341-1.085-0.21567-2.2092-0.10353-3.2309 0.32227-1.0217 0.42579-1.895 1.1462-2.51 2.0704-0.61494 0.9241-0.9439 2.0106-0.94539 3.1225 0 0.2133 0.084285 0.4178 0.23432 0.5686 0.15003 0.1509 0.35351 0.2356 0.56568 0.2356h9.6c0.2122 0 0.4157-0.0847 0.5657-0.2356 0.15-0.1508 0.2343-0.3553 0.2343-0.5686" fill="#fff"/>
</svg>
