<?xml version="1.0" encoding="UTF-8" standalone="no"?>
<svg
   xmlns:dc="http://purl.org/dc/elements/1.1/"
   xmlns:cc="http://creativecommons.org/ns#"
   xmlns:rdf="http://www.w3.org/1999/02/22-rdf-syntax-ns#"
   xmlns:svg="http://www.w3.org/2000/svg"
   xmlns="http://www.w3.org/2000/svg"
   xmlns:sodipodi="http://sodipodi.sourceforge.net/DTD/sodipodi-0.dtd"
   xmlns:inkscape="http://www.inkscape.org/namespaces/inkscape"
   width="58"
   height="64"
   enable-background="new 0 0 66 66"
   version="1.1"
   viewBox="0 0 58 64"
   xml:space="preserve"
   id="svg24"
   sodipodi:docname="television.svg"
   inkscape:version="0.92.4 (5da689c313, 2019-01-14)"><defs
     id="defs28" /><sodipodi:namedview
     pagecolor="#ffffff"
     bordercolor="#666666"
     borderopacity="1"
     objecttolerance="10"
     gridtolerance="10"
     guidetolerance="10"
     inkscape:pageopacity="0"
     inkscape:pageshadow="2"
     inkscape:window-width="2560"
     inkscape:window-height="1377"
     id="namedview26"
     showgrid="false"
     inkscape:zoom="3.6875"
     inkscape:cx="29"
     inkscape:cy="32"
     inkscape:window-x="1432"
     inkscape:window-y="528"
     inkscape:window-maximized="1"
     inkscape:current-layer="svg24" /><metadata
     id="metadata2"><rdf:RDF><cc:Work
         rdf:about=""><dc:format>image/svg+xml</dc:format><dc:type
           rdf:resource="http://purl.org/dc/dcmitype/StillImage" /><dc:title></dc:title></cc:Work></rdf:RDF></metadata><g
     transform="translate(-4,-1)"
     id="g22"
     style="fill:#ffffff;fill-opacity:1"><path
       d="m57 15.7h-18.4c0-0.2-0.1-0.3-0.1-0.5l4.2-3.2c0.5 0.4 1.2 0.7 1.9 0.7 1.7 0 3.1-1.4 3.1-3.1s-1.4-3.1-3.1-3.1-3.1 1.4-3.1 3.1c0 0.3 0 0.5 0.1 0.8l-3.9 3c-0.9-1.2-2.2-2-3.7-2.3v-4c1.2-0.4 2.1-1.6 2.1-2.9 0-1.8-1.4-3.2-3.1-3.2s-3.1 1.4-3.1 3.1c0 1.4 0.9 2.5 2.1 2.9v4c-1.5 0.3-2.8 1.1-3.7 2.3l-3.9-3c0.1-0.3 0.1-0.5 0.1-0.8 0-1.7-1.4-3.1-3.1-3.1s-3.1 1.4-3.1 3.1 1.4 3.1 3.1 3.1c0.7 0 1.4-0.2 1.9-0.7l4.2 3.2c0 0.2-0.1 0.3-0.1 0.5h-18.4c-2.8 0-5 2.3-5 5v34.9c0 2.8 2.3 5 5 5h3.4v3.5c0 0.6 0.4 1 1 1h7.5c0.6 0 1-0.4 1-1v-3.3h22.3v3.3c0 0.6 0.4 1 1 1h7.5c0.6 0 1-0.4 1-1v-3.3h3.3c2.8 0 5-2.3 5-5v-34.9c0-2.8-2.2-5.1-5-5.1zm-12.4-7.2c0.6 0 1.1 0.5 1.1 1.1s-0.5 1.1-1.1 1.1-1.1-0.5-1.1-1.1c-0.1-0.6 0.4-1.1 1.1-1.1zm-23.2 2.2c-0.6 0-1.1-0.5-1.1-1.1s0.5-1.1 1.1-1.1 1.1 0.5 1.1 1.1-0.5 1.1-1.1 1.1zm11.6-7.7c0.6 0 1.1 0.5 1.1 1.1s-0.5 1.1-1.1 1.1-1.1-0.5-1.1-1.1 0.5-1.1 1.1-1.1zm0 10c1.7 0 3.1 1.2 3.6 2.7h-7.1c0.4-1.5 1.8-2.7 3.5-2.7zm-13.2 50h-5.5v-2.3h5.5zm31.8 0h-5.5v-2.3h5.5zm8.4-7.4c0 1.7-1.4 3-3 3h-48c-1.7 0-3-1.4-3-3v-34.8c0-1.7 1.4-3 3-3h48c1.7 0 3 1.4 3 3z"
       id="path4"
       style="fill:#ffffff;fill-opacity:1" /><path
       d="m46.2 20.1h-36.5c-0.8 0-1.4 0.6-1.4 1.4v33.5c0 0.8 0.6 1.4 1.4 1.4h36.5c0.8 0 1.4-0.6 1.4-1.4v-33.6c0-0.7-0.6-1.3-1.4-1.3zm-0.6 34.2h-35.2v-32.2h35.3v32.2z"
       id="path6"
       style="fill:#ffffff;fill-opacity:1" /><path
       d="m20.8 47.6c0.3 0.2 0.7 0.2 1 0l13.4-8.6c0.3-0.2 0.5-0.5 0.5-0.8s-0.2-0.7-0.5-0.8l-13.4-8.6c-0.3-0.2-0.7-0.2-1 0s-0.5 0.5-0.5 0.9v17.1c0 0.3 0.2 0.7 0.5 0.8zm1.5-16.1 10.6 6.7-10.6 6.7z"
       id="path8"
       style="fill:#ffffff;fill-opacity:1" /><path
       d="m53.8 22.3c-2.8 0-5 2.3-5 5 0 2.8 2.3 5 5 5 2.8 0 5-2.3 5-5 0.1-2.7-2.2-5-5-5zm0 8.1c-1.7 0-3-1.4-3-3 0-1.7 1.4-3 3-3 1.7 0 3 1.4 3 3 0.1 1.7-1.3 3-3 3z"
       id="path10"
       style="fill:#ffffff;fill-opacity:1" /><path
       d="m57.9 34.6h-8.1c-0.6 0-1 0.4-1 1s0.4 1 1 1h8.1c0.6 0 1-0.4 1-1s-0.5-1-1-1z"
       id="path12"
       style="fill:#ffffff;fill-opacity:1" /><path
       d="m57.9 38.9h-8.1c-0.6 0-1 0.4-1 1s0.4 1 1 1h8.1c0.6 0 1-0.4 1-1 0-0.5-0.5-1-1-1z"
       id="path14"
       style="fill:#ffffff;fill-opacity:1" /><path
       d="m57.9 43.3h-8.1c-0.6 0-1 0.4-1 1s0.4 1 1 1h8.1c0.6 0 1-0.4 1-1s-0.5-1-1-1z"
       id="path16"
       style="fill:#ffffff;fill-opacity:1" /><path
       d="m57.9 47.7h-8.1c-0.6 0-1 0.4-1 1s0.4 1 1 1h8.1c0.6 0 1-0.4 1-1s-0.5-1-1-1z"
       id="path18"
       style="fill:#ffffff;fill-opacity:1" /><path
       d="m57.9 52h-8.1c-0.6 0-1 0.4-1 1s0.4 1 1 1h8.1c0.6 0 1-0.4 1-1 0-0.5-0.5-1-1-1z"
       id="path20"
       style="fill:#ffffff;fill-opacity:1" /></g></svg>