<?xml version="1.0" encoding="utf-8"?>
<!-- Generator: Adobe Illustrator 24.2.0, SVG Export Plug-In . SVG Version: 6.00 Build 0)  -->
<svg version="1.1" id="Layer_1" xmlns="http://www.w3.org/2000/svg" xmlns:xlink="http://www.w3.org/1999/xlink" x="0px" y="0px"
	 viewBox="0 0 512 512" style="enable-background:new 0 0 512 512;" xml:space="preserve">
<style type="text/css">
	.st0{fill:#FF4477;}
</style>
<g>
	<path class="st0" d="M480.4,425.7l-31.3-31.3c1.2-4.4,1.9-9,1.9-13.7V244.3c0-97.4-90.7-175.4-202.5-175.4
		c-37.1,0-71.7,8.5-101.5,23.3L88.6,33.9c-6.6-6.6-17.4-6.6-24,0c-6.6,6.6-6.6,17.4,0,24l391.8,391.8c3.3,3.3,7.7,5,12,5
		c4.4,0,8.7-1.7,12-5C487,443.1,487,432.3,480.4,425.7z M248.5,100.9c41.8,0,87.8,16.4,117.4,42c29.5,25.6,47.1,65.3,47.1,101.5v39
		h-75L171.5,116.8C195.7,106.6,223.1,100.9,248.5,100.9z"/>
	<path class="st0" d="M337.1,439.2h46.4c6.2,0,12.3-0.8,18.2-2.2l-64.6-64.6V439.2z"/>
	<path class="st0" d="M86,244.3c0-31,10.7-65.3,32.4-90.6l-23.8-23.8C64.2,160.6,46,200.5,46,244.3v136.4c0,15.5,7.1,30.4,19.8,41.3
		c12.7,11,29.8,17.1,47.7,17.1h42.2V283.3H86V244.3z"/>
</g>
</svg>
