<?xml version="1.0" encoding="utf-8"?>
<!-- Generator: Adobe Illustrator 24.2.0, SVG Export Plug-In . SVG Version: 6.00 Build 0)  -->
<svg version="1.1" id="Layer_1" xmlns="http://www.w3.org/2000/svg" xmlns:xlink="http://www.w3.org/1999/xlink" x="0px" y="0px"
	 viewBox="0 0 512 512" style="enable-background:new 0 0 512 512;" xml:space="preserve">
<style type="text/css">
	.st0{fill:#FFFFFF;}
</style>
<path class="st0" d="M248.5,68.9C136,68.9,46,146.9,46,244.3v136.4c0,15.5,7.1,30.4,19.8,41.3c12.7,11,29.8,17.1,47.7,17.1h42.2
	V283.3H86v-39c0-36.2,14.6-76.9,44.1-102.5c29.5-25.6,76.6-41,118.4-41s87.8,16.4,117.4,42c29.5,25.6,47.1,65.3,47.1,101.5v39h-75.9
	v155.9h46.4c17.9,0,35.1-6.2,47.7-17.1c12.7-11,19.8-25.8,19.8-41.3V244.3C451,146.9,360.3,68.9,248.5,68.9z"/>
</svg>
