<?xml version="1.0" encoding="UTF-8" ?>
<!DOCTYPE svg PUBLIC "-//W3C//DTD SVG 1.1//EN" "http://www.w3.org/Graphics/SVG/1.1/DTD/svg11.dtd">
<svg width="512pt" height="512pt" viewBox="0 0 512 512" version="1.1" xmlns="http://www.w3.org/2000/svg">
<g id="#000000ff">
<path fill="#ff4477" opacity="1.00" d=" M 32.05 46.87 C 32.60 38.87 39.94 31.93 47.99 32.01 C 52.46 31.93 56.69 34.13 59.72 37.31 C 93.15 70.80 126.71 104.15 160.06 137.72 C 159.83 127.75 159.92 117.68 162.14 107.91 C 167.70 81.49 185.11 57.95 208.56 44.64 C 228.44 33.12 252.58 29.29 275.07 33.94 C 297.91 38.50 318.78 51.85 332.71 70.48 C 345.16 86.89 352.02 107.41 351.99 128.00 C 352.01 159.47 352.00 190.93 352.00 222.40 C 316.87 222.43 281.74 222.35 246.61 222.43 C 256.98 233.25 267.84 243.59 278.29 254.34 C 302.86 254.48 327.43 254.36 352.00 254.40 C 352.00 274.29 345.79 294.09 334.40 310.40 C 343.48 319.44 352.55 328.50 361.58 337.59 C 384.16 313.76 397.94 281.86 399.70 249.07 C 400.31 243.15 398.99 236.67 402.18 231.30 C 407.73 221.52 424.22 221.51 429.80 231.27 C 432.50 235.69 432.00 241.05 431.86 245.99 C 431.02 272.82 423.94 299.47 410.99 323.01 C 403.68 336.46 394.49 348.86 384.00 360.00 C 413.10 389.57 442.16 419.18 471.25 448.76 C 475.24 452.63 479.73 456.94 479.94 462.89 C 480.99 473.26 469.73 482.53 459.79 479.25 C 454.47 477.87 451.07 473.31 447.30 469.69 C 310.47 332.82 173.61 195.99 36.77 59.14 C 33.56 55.96 31.65 51.41 32.05 46.87 Z" />
<path fill="#ff4477" opacity="1.00" d=" M 87.13 226.28 C 90.07 224.46 93.58 223.95 96.99 223.99 C 116.93 224.02 136.87 223.98 156.81 224.01 C 198.43 265.59 240.02 307.19 281.60 348.80 C 270.20 351.05 258.51 352.81 246.88 351.54 C 220.86 349.18 196.23 335.44 180.27 314.80 C 167.21 298.18 159.98 277.14 159.98 256.00 C 144.52 256.00 129.06 255.99 113.60 256.01 C 117.21 288.98 132.64 320.48 156.51 343.50 C 177.73 364.20 205.52 378.08 234.86 382.41 C 259.12 386.01 284.36 383.41 307.21 374.40 C 315.18 382.42 323.25 390.34 331.17 398.41 C 312.48 406.79 292.54 412.75 272.06 414.35 C 271.93 425.57 272.03 436.78 272.00 448.00 C 288.00 448.01 304.00 447.98 320.00 448.01 C 324.90 447.93 330.00 449.91 332.94 453.97 C 336.79 459.35 336.99 467.03 333.77 472.76 C 331.06 477.57 325.43 480.08 320.04 479.99 C 277.38 480.01 234.71 480.01 192.04 479.99 C 186.34 480.13 180.38 477.30 177.83 472.04 C 174.87 466.02 175.38 458.05 179.91 452.92 C 182.92 449.51 187.57 447.96 192.04 448.01 C 208.03 447.98 224.01 448.01 240.00 448.00 C 239.97 436.79 240.06 425.58 239.96 414.37 C 206.15 411.39 173.36 398.27 146.77 377.21 C 121.17 357.04 101.29 329.65 90.29 298.95 C 83.38 279.78 79.87 259.37 80.06 238.99 C 80.13 233.94 82.70 228.85 87.13 226.28 Z" />
</g>
</svg>
