<?xml version="1.0" encoding="UTF-8" standalone="no"?>
<!-- Generator: Adobe Illustrator 24.2.0, SVG Export Plug-In . SVG Version: 6.00 Build 0)  -->

<svg
   xmlns:dc="http://purl.org/dc/elements/1.1/"
   xmlns:cc="http://creativecommons.org/ns#"
   xmlns:rdf="http://www.w3.org/1999/02/22-rdf-syntax-ns#"
   xmlns:svg="http://www.w3.org/2000/svg"
   xmlns="http://www.w3.org/2000/svg"
   xmlns:sodipodi="http://sodipodi.sourceforge.net/DTD/sodipodi-0.dtd"
   xmlns:inkscape="http://www.inkscape.org/namespaces/inkscape"
   enable-background="new 0 0 128 128"
   version="1.1"
   viewBox="0 0 75.251945 75.241943"
   xml:space="preserve"
   id="svg10"
   sodipodi:docname="button-zoom-out-idle.svg"
   width="75.251945"
   height="75.241943"
   inkscape:version="0.92.4 (5da689c313, 2019-01-14)"><defs
   id="defs14" /><sodipodi:namedview
   pagecolor="#ffffff"
   bordercolor="#666666"
   borderopacity="1"
   objecttolerance="10"
   gridtolerance="10"
   guidetolerance="10"
   inkscape:pageopacity="0"
   inkscape:pageshadow="2"
   inkscape:window-width="716"
   inkscape:window-height="480"
   id="namedview12"
   showgrid="false"
   inkscape:zoom="1.84375"
   inkscape:cx="37.4675"
   inkscape:cy="37.374444"
   inkscape:window-x="0"
   inkscape:window-y="0"
   inkscape:window-maximized="0"
   inkscape:current-layer="svg10" /><metadata
   id="metadata2"><rdf:RDF><cc:Work
       rdf:about=""><dc:format>image/svg+xml</dc:format><dc:type
         rdf:resource="http://purl.org/dc/dcmitype/StillImage" /><dc:title></dc:title></cc:Work></rdf:RDF></metadata>
<style
   type="text/css"
   id="style4">
	.st0{opacity:0.74;fill:#D7D7D7;}
</style>
<path
   class="st0"
   d="m 75.2475,13.7975 c -0.01,-8 -5.81,-13.79 -13.82,-13.79 -15.85,-0.01 -31.7,-0.01 -47.55,0 -8.08,0 -13.87,5.78 -13.87,13.84 -0.01,15.85 -0.01,31.7 0,47.55 0,8.07 5.79,13.84 13.87,13.84 15.82,0.01 31.63,0 47.45,0 8.15,0 13.92,-5.76 13.92,-13.9 0.01,-7.87 0,-15.75 0,-23.62 0,-7.97 0.01,-15.94 0,-23.92 z"
   id="path6"
   inkscape:connector-curvature="0"
   style="opacity:0.73999999;fill:#d7d7d7" />
<path
   d="m 64.7475,39.9475 h -54.25 c -0.49,0 -0.89,-0.4 -0.89,-0.89 v -2.88 c 0,-0.49 0.4,-0.89 0.89,-0.89 h 54.25 c 0.49,0 0.89,0.4 0.89,0.89 v 2.88 c 0,0.5 -0.4,0.89 -0.89,0.89 z"
   id="path8"
   inkscape:connector-curvature="0" />
</svg>