<?xml version="1.0" encoding="UTF-8"?>
<!-- Generator: Adobe Illustrator 24.2.0, SVG Export Plug-In . SVG Version: 6.00 Build 0)  -->
<svg width="75.252" height="75.242" version="1.1" viewBox="0 0 75.252 75.242" xml:space="preserve" xmlns="http://www.w3.org/2000/svg" xmlns:cc="http://creativecommons.org/ns#" xmlns:dc="http://purl.org/dc/elements/1.1/" xmlns:rdf="http://www.w3.org/1999/02/22-rdf-syntax-ns#"><metadata><rdf:RDF><cc:Work rdf:about=""><dc:format>image/svg+xml</dc:format><dc:type rdf:resource="http://purl.org/dc/dcmitype/StillImage"/><dc:title/></cc:Work></rdf:RDF></metadata>
<style type="text/css">
	.st0{opacity:0.74;fill:#D7D7D7;}
</style>
<path class="st0" d="m75.248 13.798c-0.01-8-5.81-13.79-13.82-13.79-15.85-0.01-31.7-0.01-47.55 0-8.08 0-13.87 5.78-13.87 13.84-0.01 15.85-0.01 31.7 0 47.55 0 8.07 5.79 13.84 13.87 13.84 15.82 0.01 31.63 0 47.45 0 8.15 0 13.92-5.76 13.92-13.9 0.01-7.87 0-15.75 0-23.62 0-7.97 0.01-15.94 0-23.92z" fill="#d7d7d7" opacity=".74"/>
<path d="m64.678 35.298h-23.77c-0.53 0-0.96-0.43-0.96-0.96v-23.76c0-0.53-0.43-0.96-0.96-0.96h-2.73c-0.53 0-0.96 0.43-0.96 0.96v23.77c0 0.53-0.43 0.96-0.96 0.96h-23.76c-0.53 0-0.96 0.43-0.96 0.96v2.73c0 0.53 0.43 0.96 0.96 0.96h23.77c0.53 0 0.96 0.43 0.96 0.96v23.77c0 0.53 0.43 0.96 0.96 0.96h2.73c0.53 0 0.96-0.43 0.96-0.96v-23.78c0-0.53 0.43-0.96 0.96-0.96h23.77c0.53 0 0.96-0.43 0.96-0.96v-2.73c-0.01-0.53-0.44-0.96-0.97-0.96z"/>
</svg>
