<?xml version="1.0" encoding="UTF-8" standalone="no"?>
<svg
   xmlns:dc="http://purl.org/dc/elements/1.1/"
   xmlns:cc="http://creativecommons.org/ns#"
   xmlns:rdf="http://www.w3.org/1999/02/22-rdf-syntax-ns#"
   xmlns:svg="http://www.w3.org/2000/svg"
   xmlns="http://www.w3.org/2000/svg"
   xmlns:sodipodi="http://sodipodi.sourceforge.net/DTD/sodipodi-0.dtd"
   xmlns:inkscape="http://www.inkscape.org/namespaces/inkscape"
   width="12.319787"
   height="14.134701"
   viewBox="0 0 12.319787 14.134701"
   version="1.1"
   id="svg10"
   sodipodi:docname="mute-for-everyone-button-icon.svg"
   style="fill:none"
   inkscape:version="0.92.4 (5da689c313, 2019-01-14)">
  <metadata
     id="metadata16">
    <rdf:RDF>
      <cc:Work
         rdf:about="">
        <dc:format>image/svg+xml</dc:format>
        <dc:type
           rdf:resource="http://purl.org/dc/dcmitype/StillImage" />
      </cc:Work>
    </rdf:RDF>
  </metadata>
  <defs
     id="defs14" />
  <sodipodi:namedview
     pagecolor="#ffffff"
     bordercolor="#666666"
     borderopacity="1"
     objecttolerance="10"
     gridtolerance="10"
     guidetolerance="10"
     inkscape:pageopacity="0"
     inkscape:pageshadow="2"
     inkscape:window-width="1359"
     inkscape:window-height="1568"
     id="namedview12"
     showgrid="false"
     inkscape:zoom="15.733333"
     inkscape:cx="6.5"
     inkscape:cy="6.6347012"
     inkscape:window-x="2966"
     inkscape:window-y="536"
     inkscape:window-maximized="0"
     inkscape:current-layer="svg10" />
  <path
     d="m 11.4394,13.3097 c -0.1227,3e-4 -0.2442,-0.0253 -0.3564,-0.075 -0.1123,-0.0496 -0.2128,-0.1223 -0.2952,-0.2133 L 0.221832,1.46482 C 0.0680729,1.2915 -0.0111741,1.06456 0.00127258,0.833199 0.0137193,0.601839 0.116856,0.384709 0.288322,0.228884 0.459788,0.0730581 0.685764,-0.00890362 0.917256,7.6828181e-4 1.14875,0.0104402 1.3671,0.110966 1.52497,0.280552 L 12.091,11.8371 c 0.1147,0.1262 0.1902,0.2831 0.2175,0.4514 0.0272,0.1684 0.005,0.341 -0.064,0.497 -0.069,0.156 -0.1818,0.2885 -0.3247,0.3816 -0.143,0.0931 -0.3099,0.1426 -0.4804,0.1426 z"
     id="path2"
     inkscape:connector-curvature="0"
     style="fill:#ffffff" />
  <path
     d="M 11.4399,6.66329 V 5.35354 C 11.442,5.13952 11.3675,4.93181 11.2298,4.76792 11.0922,4.60403 10.9005,4.49475 10.6893,4.45984 10.1456,4.37839 9.67893,4.81809 9.67893,5.34694 V 6.66329 C 9.67815,6.96316 9.62083,7.2602 9.50999,7.53883 9.49487,7.57709 9.49078,7.61881 9.49817,7.65928 9.50556,7.69974 9.52415,7.73732 9.55181,7.76776 l 1.05609,1.16116 c 0.0114,0.01269 0.0257,0.02253 0.0417,0.02873 0.0159,0.00621 0.0331,0.0086 0.0502,0.007 0.017,-0.00161 0.0334,-0.00716 0.048,-0.01623 0.0145,-0.00907 0.0267,-0.0214 0.0356,-0.03601 0.4256,-0.67325 0.6531,-1.45266 0.6565,-2.24912 z"
     id="path4"
     inkscape:connector-curvature="0"
     style="fill:#ffffff" />
  <path
     d="M 8.79837,6.21122 V 2.68923 C 8.79634,1.98928 8.51739,1.31859 8.02245,0.823651 7.52751,0.328714 6.85681,0.0497621 6.15687,0.0477295 5.70337,0.0484982 5.25768,0.165817 4.86257,0.388425 4.46746,0.611034 4.13621,0.93146 3.90059,1.31895 3.87597,1.35963 3.86519,1.40718 3.86985,1.4545 3.87451,1.50182 3.89437,1.54636 3.92645,1.58145 l 4.64574,5.11019 c 0.01382,0.0154 0.03171,0.02659 0.0516,0.03229 0.01989,0.0057 0.04099,0.00568 0.06087,-7e-5 C 8.70454,6.71811 8.7224,6.70688 8.73618,6.69145 8.74997,6.67602 8.75912,6.65701 8.7626,6.63661 8.78602,6.49602 8.79798,6.35375 8.79837,6.21122 Z"
     id="path6"
     inkscape:connector-curvature="0"
     style="fill:#ffffff" />
  <path
     d="M 7.89233,12.3737 H 7.0366 V 11.3975 C 7.26982,11.3562 7.50014,11.3 7.72614,11.2291 7.74388,11.2236 7.75995,11.2138 7.77286,11.2005 7.78578,11.1872 7.79511,11.1708 7.8,11.1529 7.80488,11.135 7.80516,11.1161 7.80082,11.0981 7.79647,11.08 7.78763,11.0634 7.77512,11.0497 L 6.61561,9.77352 C 6.59304,9.74841 6.56492,9.72891 6.53349,9.71659 6.50206,9.70426 6.46818,9.69945 6.43456,9.70253 6.34156,9.71078 6.248,9.71574 6.1561,9.71574 4.17498,9.71574 2.63411,8.07471 2.63411,6.66261 V 5.35176 C 2.6363,5.11919 2.54784,4.8949 2.38748,4.72642 2.22713,4.55795 2.00747,4.45854 1.77507,4.44925 1.65747,4.4457 1.54036,4.46589 1.43074,4.5086 1.32111,4.55132 1.22122,4.6157 1.13703,4.69789 1.05285,4.78007 0.986084,4.87838 0.940738,4.98695 0.895392,5.09551 0.872392,5.2121 0.873111,5.32975 v 1.33286 c 0,1.28553 0.602039,2.50997 1.694409,3.44829 0.7719,0.6625 1.70686,1.1067 2.70808,1.2866 v 0.9762 H 4.41987 c -0.47382,0 -0.8805,0.3644 -0.90416,0.8382 -0.00574,0.119 0.01276,0.238 0.05436,0.3497 0.0416,0.1117 0.10545,0.2138 0.18768,0.3001 0.08222,0.0862 0.1811,0.1549 0.29066,0.2019 0.10956,0.0469 0.2275,0.0711 0.34669,0.0711 h 3.522 c 0.11928,2e-4 0.23735,-0.0239 0.34703,-0.0708 C 8.37382,14.017 8.47284,13.9484 8.55518,13.8621 8.63752,13.7758 8.70147,13.6736 8.74314,13.5619 8.78481,13.4501 8.80334,13.331 8.7976,13.2119 8.77448,12.7381 8.36615,12.3737 7.89233,12.3737 Z"
     id="path8"
     inkscape:connector-curvature="0"
     style="fill:#ffffff" />
</svg>
