<svg width="24" height="23" viewBox="0 0 24 23" fill="none" xmlns="http://www.w3.org/2000/svg">
<path d="M15.2198 3.21739H2.10092C1.67427 3.21739 1.26509 3.38688 0.963403 3.68857C0.661714 3.99026 0.492227 4.39943 0.492227 4.82609V17.6957C0.488268 17.7734 0.488268 17.8512 0.492227 17.9289L15.2198 3.21739Z" fill="white"/>
<path d="M22.5796 4.91457C22.4517 4.85349 22.31 4.82728 22.1688 4.83858C22.0275 4.84988 21.8918 4.89829 21.7752 4.97891L17.3835 8.09174V6.7887L23.0139 1.15826L21.8557 0L0.492188 21.3635L1.65045 22.5217L4.86784 19.3043H15.7748C16.2014 19.3043 16.6106 19.1349 16.9123 18.8332C17.214 18.5315 17.3835 18.1223 17.3835 17.6957V14.43L21.7431 17.5428C21.8631 17.6283 22.0043 17.6792 22.1513 17.6898C22.2983 17.7005 22.4454 17.6706 22.5765 17.6034C22.7077 17.5361 22.8178 17.4342 22.895 17.3086C22.9721 17.183 23.0132 17.0387 23.0139 16.8913V5.63043C23.0142 5.48273 22.9739 5.3378 22.8972 5.21152C22.8206 5.08525 22.7107 4.98251 22.5796 4.91457Z" fill="white"/>
</svg>
