<?xml version="1.0" encoding="UTF-8"?>
<!-- Created with Inkscape (http://www.inkscape.org/) -->
<svg width="6.1765mm" height="5.5563mm" version="1.1" viewBox="0 0 6.1765 5.5563" xmlns="http://www.w3.org/2000/svg" xmlns:cc="http://creativecommons.org/ns#" xmlns:dc="http://purl.org/dc/elements/1.1/" xmlns:rdf="http://www.w3.org/1999/02/22-rdf-syntax-ns#">
 <metadata>
  <rdf:RDF>
   <cc:Work rdf:about="">
    <dc:format>image/svg+xml</dc:format>
    <dc:type rdf:resource="http://purl.org/dc/dcmitype/StillImage"/>
    <dc:title/>
   </cc:Work>
  </rdf:RDF>
 </metadata>
 <g transform="translate(-56.632 -83.311)">
  <g transform="matrix(.26458 0 0 .26458 53.142 67.568)" fill="#fff">
   <circle class="st1" cx="25" cy="64" r="4.5"/>
   <path class="st1" d="m28.2 70.9h-6.1c-2.6 0-4.6 2.2-4.6 4.7v2.4c2.1 1.6 4.5 2.5 7.3 2.5 3.1 0 5.9-1.2 8-3.1v-1.8c0-2.6-2-4.7-4.6-4.7z"/>
   <circle class="st1" cx="34" cy="65.3" r="2"/>
   <path class="st1" d="m35.2 69.1h-2.3c-0.5 0-0.9 0.2-1.3 0.5 0.7 0.3 1.3 0.9 1.7 1.4 0.6 0.7 0.9 1.5 0.9 2.4 0.2 0.5 0.2 1 0.1 1.6v0.3c0.9-1.2 1.8-3.3 2.2-4.6v-0.2c0.2-0.4-0.5-1.4-1.3-1.4z"/>
   <circle class="st1" cx="16" cy="65.8" r="2"/>
   <path class="st1" d="m15.4 75.8c-0.1-0.4-0.1-0.8 0-1.2v-0.1-0.3-0.3-0.3c0.1-1.2 0.9-2.5 1.8-3.2 0.2-0.2 0.5-0.3 0.8-0.5-0.3-0.3-0.7-0.4-1.1-0.4h-2.3c-0.8 0-1.5 1-1.4 1.5v0.2c0.3 1.2 1.3 3.3 2.2 4.6z"/>
  </g>
 </g>
</svg>
