<?xml version="1.0" encoding="UTF-8"?>
<svg width="17.072" height="13.408" fill="none" version="1.1" viewBox="0 0 17.072 13.408" xmlns="http://www.w3.org/2000/svg" xmlns:cc="http://creativecommons.org/ns#" xmlns:dc="http://purl.org/dc/elements/1.1/" xmlns:rdf="http://www.w3.org/1999/02/22-rdf-syntax-ns#">
 <metadata>
  <rdf:RDF>
   <cc:Work rdf:about="">
    <dc:format>image/svg+xml</dc:format>
    <dc:type rdf:resource="http://purl.org/dc/dcmitype/StillImage"/>
    <dc:title/>
   </cc:Work>
  </rdf:RDF>
 </metadata>
 <g fill="#000">
  <path d="m16.965 8.5789c-0.3842 1.664-1.1237 3.1118-2.2466 4.3725-0.489 0.547-1.2939 0.6111-1.817 0.146-0.5319-0.4782-0.5949-1.2787-0.1038-1.8367 0.5234-0.609 0.9964-1.2504 1.2894-2.0175 0.5306-1.3618 0.5636-2.7268 0.1947-4.1225-0.2947-1.1302-0.9349-2.0518-1.7532-2.8701-0.6951-0.69207-0.4422-1.8439 0.4634-2.1402 0.4594-0.15267 0.8986-0.080599 1.2636 0.26304 1.7834 1.6988 2.7427 3.801 2.8145 6.2829 0.0159 0.63152-0.062 1.2795-0.105 1.9227z"/>
  <path d="m12.364 7.2244c-0.2381 1.3717-0.6727 2.169-1.3046 2.8717-0.4999 0.5449-1.2678 0.5932-1.8216 0.1108-0.51421-0.45199-0.57932-1.2414-0.1122-1.7926 0.3806-0.45331 0.654-0.93843 0.6798-1.5506 0.0148-0.61426-0.1792-1.1425-0.5821-1.5848-0.24431-0.26356-0.42561-0.56085-0.44596-0.93039-0.03262-0.54329 0.23868-1.0174 0.74966-1.2631 0.461-0.22092 1.0226-0.13703 1.3943 0.23074 1.1989 1.1992 1.625 2.6515 1.4427 3.9081z"/>
  <path d="m7.3494 13.312c-0.13309-0.0897-0.2366-0.1495-0.32533-0.2243-1.1239-0.8227-2.2477-1.6603-3.3568-2.4979-0.26617-0.2094-0.53235-0.2991-0.87247-0.2991-0.91683 0.0149-1.8484 0-2.7949 0v-7.2543c0.70981 0 1.4344-0.04487 2.1294 0.01496 0.79853 0.05982 1.4344-0.14958 2.0555-0.67308 0.87247-0.7329 1.8189-1.3761 2.7357-2.0641 0.13309-0.089743 0.25139-0.17949 0.42884-0.3141v13.312z"/>
 </g>
</svg>
