<?xml version="1.0" encoding="UTF-8" ?>
<!DOCTYPE svg PUBLIC "-//W3C//DTD SVG 1.1//EN" "http://www.w3.org/Graphics/SVG/1.1/DTD/svg11.dtd">
<svg width="512pt" height="512pt" viewBox="0 0 512 512" version="1.1" xmlns="http://www.w3.org/2000/svg">
<g id="#000000ff">
<path fill="#ffffff" opacity="1.00" d=" M 233.96 34.61 C 256.52 29.14 281.03 32.39 301.41 43.49 C 331.05 59.26 351.22 91.39 351.93 125.03 C 352.09 158.02 351.96 191.01 352.00 224.00 C 314.65 224.01 277.30 223.98 239.96 224.01 C 235.08 223.94 230.00 225.90 227.07 229.94 C 223.20 235.31 223.00 243.02 226.22 248.75 C 228.91 253.56 234.53 256.07 239.91 255.98 C 277.28 256.02 314.64 255.98 352.01 256.00 C 352.00 276.64 345.13 297.18 332.63 313.61 C 317.68 333.56 294.74 347.41 270.02 350.94 C 251.99 353.65 233.20 351.03 216.62 343.46 C 195.02 333.74 177.30 315.76 167.91 294.02 C 162.67 282.07 160.05 269.04 159.98 256.00 C 144.52 256.00 129.06 256.00 113.60 256.01 C 117.20 288.97 132.64 320.46 156.50 343.49 C 176.33 362.83 201.88 376.26 229.11 381.44 C 260.44 387.43 293.74 382.74 322.11 368.13 C 345.97 355.93 366.25 336.85 379.89 313.78 C 392.74 292.18 399.68 267.14 399.94 242.01 C 399.95 238.33 400.22 234.47 402.21 231.25 C 407.79 221.52 424.23 221.53 429.80 231.28 C 432.99 236.66 431.80 243.16 431.73 249.11 C 429.67 292.59 410.32 334.82 379.06 365.06 C 350.44 393.15 311.98 410.92 272.01 414.39 C 271.99 425.59 272.00 436.79 272.00 448.00 C 288.01 448.02 304.02 447.98 320.03 448.01 C 324.24 447.98 328.57 449.35 331.58 452.39 C 336.58 457.46 337.22 465.84 334.14 472.08 C 331.59 477.29 325.69 480.11 320.04 479.99 C 277.68 480.02 235.31 479.98 192.95 480.01 C 188.42 480.14 183.64 478.90 180.39 475.58 C 175.41 470.50 174.77 462.14 177.84 455.92 C 180.40 450.71 186.29 447.87 191.95 448.01 C 207.96 447.98 223.98 448.01 240.00 448.00 C 240.00 436.80 240.01 425.59 239.99 414.39 C 208.78 411.58 178.41 400.25 153.00 381.92 C 125.21 361.94 103.40 333.73 91.30 301.70 C 83.72 281.72 79.85 260.33 80.06 238.96 C 79.91 230.92 86.97 223.90 95.00 224.05 C 116.66 223.93 138.33 224.04 160.00 224.00 C 160.01 191.99 159.99 159.99 160.01 127.98 C 159.96 109.01 165.79 90.09 176.47 74.42 C 189.80 54.64 210.69 40.01 233.96 34.61 Z" />
</g>
</svg>
